<?xml version="1.0" encoding="UTF-8"?>
<svg xmlns="http://www.w3.org/2000/svg" xmlns:xlink="http://www.w3.org/1999/xlink" width="288px" height="252px" viewBox="0 0 288 252" version="1.1" id="Fig:dens">
  <metadata xmlns:gridsvg="http://www.stat.auckland.ac.nz/~paul/R/gridSVG/">
    <gridsvg:generator name="gridSVG" version="1.7-0" time="2019-06-06 01:18:54"/>
    <gridsvg:argument name="name" value="QualityControl/dens.svg"/>
    <gridsvg:argument name="exportCoords" value="none"/>
    <gridsvg:argument name="exportMappings" value="none"/>
    <gridsvg:argument name="exportJS" value="none"/>
    <gridsvg:argument name="res" value="72"/>
    <gridsvg:argument name="prefix" value="Fig:dens"/>
    <gridsvg:argument name="addClasses" value="FALSE"/>
    <gridsvg:argument name="indent" value="TRUE"/>
    <gridsvg:argument name="htmlWrapper" value="FALSE"/>
    <gridsvg:argument name="usePaths" value="none"/>
    <gridsvg:argument name="uniqueNames" value="TRUE"/>
    <gridsvg:separator name="id.sep" value="."/>
    <gridsvg:separator name="gPath.sep" value="::"/>
    <gridsvg:separator name="vpPath.sep" value="::"/>
  </metadata>
  <g transform="translate(0, 252) scale(1, -1)">
    <g id="Fig:densgridSVG" fill="none" stroke="rgb(0,0,0)" stroke-dasharray="none" stroke-width="0.75" font-size="12" font-family="Helvetica, Arial, FreeSans, Liberation Sans, Nimbus Sans L, sans-serif" opacity="1" stroke-linecap="round" stroke-linejoin="round" stroke-miterlimit="10" stroke-opacity="1" fill-opacity="0" font-weight="normal" font-style="normal">
      <g id="Fig:densplot_01.background.1">
        <rect id="Fig:densplot_01.background.1.1" x="0" y="0" width="288" height="252" transform="" fill="none" stroke="none" stroke-opacity="0" fill-opacity="0"/>
      </g>
      <g id="Fig:densplot_01.toplevel.vp.1" font-size="12">
        <g id="Fig:densplot_01.ylab.vp.1">
          <g id="Fig:densplot_01.ylab.1">
            <g id="Fig:densplot_01.ylab.1.1" transform="translate(10.31, 138.09)" stroke-width="0.1">
              <g id="Fig:densplot_01.ylab.1.1.scale" transform="scale(1, -1)">
                <text x="0" y="0" id="Fig:densplot_01.ylab.1.1.text" transform="rotate(-90)" text-anchor="middle" opacity="1" stroke="rgb(0,0,0)" fill="rgb(0,0,0)" stroke-opacity="1" fill-opacity="1" font-size="12" font-weight="normal" font-style="normal">
                  <tspan id="Fig:densplot_01.ylab.1.1.tspan.1" dy="4.31" x="0">Density</tspan>
                </text>
              </g>
            </g>
          </g>
        </g>
        <g id="Fig:densplot_01.figure.vp.1"/>
        <defs>
          <clipPath id="Fig:densplot_01.panel.1.1.vp.1.clipPath">
            <rect x="44.8" y="42.19" width="231.2" height="191.81" fill="none" stroke="none"/>
          </clipPath>
        </defs>
        <g id="Fig:densplot_01.panel.1.1.vp.1" clip-path="url(#Fig:densplot_01.panel.1.1.vp.1.clipPath)"/>
        <g id="Fig:densplot_01.strip.1.1.off.vp.1"/>
        <g id="Fig:densplot_01.strip.left.1.1.off.vp.1">
          <g id="Fig:densplot_01.ticks.left.panel.1.1.1">
            <polyline id="Fig:densplot_01.ticks.left.panel.1.1.1.1" points="44.8,53.97 39.13,53.97" stroke="rgb(0,0,0)" opacity="1" stroke-dasharray="none" stroke-width="0.75" stroke-opacity="1" fill="none"/>
            <polyline id="Fig:densplot_01.ticks.left.panel.1.1.1.2" points="44.8,82.98 39.13,82.98" stroke="rgb(0,0,0)" opacity="1" stroke-dasharray="none" stroke-width="0.75" stroke-opacity="1" fill="none"/>
            <polyline id="Fig:densplot_01.ticks.left.panel.1.1.1.3" points="44.8,112 39.13,112" stroke="rgb(0,0,0)" opacity="1" stroke-dasharray="none" stroke-width="0.75" stroke-opacity="1" fill="none"/>
            <polyline id="Fig:densplot_01.ticks.left.panel.1.1.1.4" points="44.8,141.02 39.13,141.02" stroke="rgb(0,0,0)" opacity="1" stroke-dasharray="none" stroke-width="0.75" stroke-opacity="1" fill="none"/>
            <polyline id="Fig:densplot_01.ticks.left.panel.1.1.1.5" points="44.8,170.04 39.13,170.04" stroke="rgb(0,0,0)" opacity="1" stroke-dasharray="none" stroke-width="0.75" stroke-opacity="1" fill="none"/>
            <polyline id="Fig:densplot_01.ticks.left.panel.1.1.1.6" points="44.8,199.06 39.13,199.06" stroke="rgb(0,0,0)" opacity="1" stroke-dasharray="none" stroke-width="0.75" stroke-opacity="1" fill="none"/>
            <polyline id="Fig:densplot_01.ticks.left.panel.1.1.1.7" points="44.8,228.08 39.13,228.08" stroke="rgb(0,0,0)" opacity="1" stroke-dasharray="none" stroke-width="0.75" stroke-opacity="1" fill="none"/>
          </g>
          <g id="Fig:densplot_01.ticklabels.left.panel.1.1.1">
            <g id="Fig:densplot_01.ticklabels.left.panel.1.1.1.1" transform="translate(33.47, 53.97)" stroke-width="0.1">
              <g id="Fig:densplot_01.ticklabels.left.panel.1.1.1.1.scale" transform="scale(1, -1)">
                <text x="0" y="0" id="Fig:densplot_01.ticklabels.left.panel.1.1.1.1.text" transform="rotate(-90)" text-anchor="middle" stroke="rgb(0,0,0)" opacity="1" fill="rgb(0,0,0)" stroke-opacity="1" fill-opacity="1" font-size="9.6" font-weight="normal" font-style="normal">
                  <tspan id="Fig:densplot_01.ticklabels.left.panel.1.1.1.1.tspan.1" dy="0" x="0">0.00</tspan>
                </text>
              </g>
            </g>
            <g id="Fig:densplot_01.ticklabels.left.panel.1.1.1.2" transform="translate(33.47, 82.98)" stroke-width="0.1">
              <g id="Fig:densplot_01.ticklabels.left.panel.1.1.1.2.scale" transform="scale(1, -1)">
                <text x="0" y="0" id="Fig:densplot_01.ticklabels.left.panel.1.1.1.2.text" transform="rotate(-90)" text-anchor="middle" stroke="rgb(0,0,0)" opacity="1" fill="rgb(0,0,0)" stroke-opacity="1" fill-opacity="1" font-size="9.6" font-weight="normal" font-style="normal">
                  <tspan id="Fig:densplot_01.ticklabels.left.panel.1.1.1.2.tspan.1" dy="0" x="0">0.02</tspan>
                </text>
              </g>
            </g>
            <g id="Fig:densplot_01.ticklabels.left.panel.1.1.1.3" transform="translate(33.47, 112)" stroke-width="0.1">
              <g id="Fig:densplot_01.ticklabels.left.panel.1.1.1.3.scale" transform="scale(1, -1)">
                <text x="0" y="0" id="Fig:densplot_01.ticklabels.left.panel.1.1.1.3.text" transform="rotate(-90)" text-anchor="middle" stroke="rgb(0,0,0)" opacity="1" fill="rgb(0,0,0)" stroke-opacity="1" fill-opacity="1" font-size="9.6" font-weight="normal" font-style="normal">
                  <tspan id="Fig:densplot_01.ticklabels.left.panel.1.1.1.3.tspan.1" dy="0" x="0">0.04</tspan>
                </text>
              </g>
            </g>
            <g id="Fig:densplot_01.ticklabels.left.panel.1.1.1.4" transform="translate(33.47, 141.02)" stroke-width="0.1">
              <g id="Fig:densplot_01.ticklabels.left.panel.1.1.1.4.scale" transform="scale(1, -1)">
                <text x="0" y="0" id="Fig:densplot_01.ticklabels.left.panel.1.1.1.4.text" transform="rotate(-90)" text-anchor="middle" stroke="rgb(0,0,0)" opacity="1" fill="rgb(0,0,0)" stroke-opacity="1" fill-opacity="1" font-size="9.6" font-weight="normal" font-style="normal">
                  <tspan id="Fig:densplot_01.ticklabels.left.panel.1.1.1.4.tspan.1" dy="0" x="0">0.06</tspan>
                </text>
              </g>
            </g>
            <g id="Fig:densplot_01.ticklabels.left.panel.1.1.1.5" transform="translate(33.47, 170.04)" stroke-width="0.1">
              <g id="Fig:densplot_01.ticklabels.left.panel.1.1.1.5.scale" transform="scale(1, -1)">
                <text x="0" y="0" id="Fig:densplot_01.ticklabels.left.panel.1.1.1.5.text" transform="rotate(-90)" text-anchor="middle" stroke="rgb(0,0,0)" opacity="1" fill="rgb(0,0,0)" stroke-opacity="1" fill-opacity="1" font-size="9.6" font-weight="normal" font-style="normal">
                  <tspan id="Fig:densplot_01.ticklabels.left.panel.1.1.1.5.tspan.1" dy="0" x="0">0.08</tspan>
                </text>
              </g>
            </g>
            <g id="Fig:densplot_01.ticklabels.left.panel.1.1.1.6" transform="translate(33.47, 199.06)" stroke-width="0.1">
              <g id="Fig:densplot_01.ticklabels.left.panel.1.1.1.6.scale" transform="scale(1, -1)">
                <text x="0" y="0" id="Fig:densplot_01.ticklabels.left.panel.1.1.1.6.text" transform="rotate(-90)" text-anchor="middle" stroke="rgb(0,0,0)" opacity="1" fill="rgb(0,0,0)" stroke-opacity="1" fill-opacity="1" font-size="9.6" font-weight="normal" font-style="normal">
                  <tspan id="Fig:densplot_01.ticklabels.left.panel.1.1.1.6.tspan.1" dy="0" x="0">0.10</tspan>
                </text>
              </g>
            </g>
            <g id="Fig:densplot_01.ticklabels.left.panel.1.1.1.7" transform="translate(33.47, 228.08)" stroke-width="0.1">
              <g id="Fig:densplot_01.ticklabels.left.panel.1.1.1.7.scale" transform="scale(1, -1)">
                <text x="0" y="0" id="Fig:densplot_01.ticklabels.left.panel.1.1.1.7.text" transform="rotate(-90)" text-anchor="middle" stroke="rgb(0,0,0)" opacity="1" fill="rgb(0,0,0)" stroke-opacity="1" fill-opacity="1" font-size="9.6" font-weight="normal" font-style="normal">
                  <tspan id="Fig:densplot_01.ticklabels.left.panel.1.1.1.7.tspan.1" dy="0" x="0">0.12</tspan>
                </text>
              </g>
            </g>
          </g>
        </g>
        <g id="Fig:densplot_01.panel.1.1.off.vp.1">
          <g id="Fig:densplot_01.ticks.bottom.panel.1.1.1">
            <polyline id="Fig:densplot_01.ticks.bottom.panel.1.1.1.1" points="56.59,42.19 56.59,36.52" stroke="rgb(0,0,0)" opacity="1" stroke-dasharray="none" stroke-width="0.75" stroke-opacity="1" fill="none"/>
            <polyline id="Fig:densplot_01.ticks.bottom.panel.1.1.1.2" points="93.4,42.19 93.4,36.52" stroke="rgb(0,0,0)" opacity="1" stroke-dasharray="none" stroke-width="0.75" stroke-opacity="1" fill="none"/>
            <polyline id="Fig:densplot_01.ticks.bottom.panel.1.1.1.3" points="130.2,42.19 130.2,36.52" stroke="rgb(0,0,0)" opacity="1" stroke-dasharray="none" stroke-width="0.75" stroke-opacity="1" fill="none"/>
            <polyline id="Fig:densplot_01.ticks.bottom.panel.1.1.1.4" points="167.01,42.19 167.01,36.52" stroke="rgb(0,0,0)" opacity="1" stroke-dasharray="none" stroke-width="0.75" stroke-opacity="1" fill="none"/>
            <polyline id="Fig:densplot_01.ticks.bottom.panel.1.1.1.5" points="203.81,42.19 203.81,36.52" stroke="rgb(0,0,0)" opacity="1" stroke-dasharray="none" stroke-width="0.75" stroke-opacity="1" fill="none"/>
            <polyline id="Fig:densplot_01.ticks.bottom.panel.1.1.1.6" points="240.62,42.19 240.62,36.52" stroke="rgb(0,0,0)" opacity="1" stroke-dasharray="none" stroke-width="0.75" stroke-opacity="1" fill="none"/>
          </g>
          <g id="Fig:densplot_01.ticklabels.bottom.panel.1.1.1">
            <g id="Fig:densplot_01.ticklabels.bottom.panel.1.1.1.1" transform="translate(56.59, 30.85)" stroke-width="0.1">
              <g id="Fig:densplot_01.ticklabels.bottom.panel.1.1.1.1.scale" transform="scale(1, -1)">
                <text x="0" y="0" id="Fig:densplot_01.ticklabels.bottom.panel.1.1.1.1.text" text-anchor="middle" stroke="rgb(0,0,0)" opacity="1" fill="rgb(0,0,0)" stroke-opacity="1" fill-opacity="1" font-size="9.6" font-weight="normal" font-style="normal">
                  <tspan id="Fig:densplot_01.ticklabels.bottom.panel.1.1.1.1.tspan.1" dy="7.18" x="0">0</tspan>
                </text>
              </g>
            </g>
            <g id="Fig:densplot_01.ticklabels.bottom.panel.1.1.1.2" transform="translate(93.4, 30.85)" stroke-width="0.1">
              <g id="Fig:densplot_01.ticklabels.bottom.panel.1.1.1.2.scale" transform="scale(1, -1)">
                <text x="0" y="0" id="Fig:densplot_01.ticklabels.bottom.panel.1.1.1.2.text" text-anchor="middle" stroke="rgb(0,0,0)" opacity="1" fill="rgb(0,0,0)" stroke-opacity="1" fill-opacity="1" font-size="9.6" font-weight="normal" font-style="normal">
                  <tspan id="Fig:densplot_01.ticklabels.bottom.panel.1.1.1.2.tspan.1" dy="7.18" x="0">200</tspan>
                </text>
              </g>
            </g>
            <g id="Fig:densplot_01.ticklabels.bottom.panel.1.1.1.3" transform="translate(130.2, 30.85)" stroke-width="0.1">
              <g id="Fig:densplot_01.ticklabels.bottom.panel.1.1.1.3.scale" transform="scale(1, -1)">
                <text x="0" y="0" id="Fig:densplot_01.ticklabels.bottom.panel.1.1.1.3.text" text-anchor="middle" stroke="rgb(0,0,0)" opacity="1" fill="rgb(0,0,0)" stroke-opacity="1" fill-opacity="1" font-size="9.6" font-weight="normal" font-style="normal">
                  <tspan id="Fig:densplot_01.ticklabels.bottom.panel.1.1.1.3.tspan.1" dy="7.18" x="0">400</tspan>
                </text>
              </g>
            </g>
            <g id="Fig:densplot_01.ticklabels.bottom.panel.1.1.1.4" transform="translate(167.01, 30.85)" stroke-width="0.1">
              <g id="Fig:densplot_01.ticklabels.bottom.panel.1.1.1.4.scale" transform="scale(1, -1)">
                <text x="0" y="0" id="Fig:densplot_01.ticklabels.bottom.panel.1.1.1.4.text" text-anchor="middle" stroke="rgb(0,0,0)" opacity="1" fill="rgb(0,0,0)" stroke-opacity="1" fill-opacity="1" font-size="9.6" font-weight="normal" font-style="normal">
                  <tspan id="Fig:densplot_01.ticklabels.bottom.panel.1.1.1.4.tspan.1" dy="7.18" x="0">600</tspan>
                </text>
              </g>
            </g>
            <g id="Fig:densplot_01.ticklabels.bottom.panel.1.1.1.5" transform="translate(203.81, 30.85)" stroke-width="0.1">
              <g id="Fig:densplot_01.ticklabels.bottom.panel.1.1.1.5.scale" transform="scale(1, -1)">
                <text x="0" y="0" id="Fig:densplot_01.ticklabels.bottom.panel.1.1.1.5.text" text-anchor="middle" stroke="rgb(0,0,0)" opacity="1" fill="rgb(0,0,0)" stroke-opacity="1" fill-opacity="1" font-size="9.6" font-weight="normal" font-style="normal">
                  <tspan id="Fig:densplot_01.ticklabels.bottom.panel.1.1.1.5.tspan.1" dy="7.18" x="0">800</tspan>
                </text>
              </g>
            </g>
            <g id="Fig:densplot_01.ticklabels.bottom.panel.1.1.1.6" transform="translate(240.62, 30.85)" stroke-width="0.1">
              <g id="Fig:densplot_01.ticklabels.bottom.panel.1.1.1.6.scale" transform="scale(1, -1)">
                <text x="0" y="0" id="Fig:densplot_01.ticklabels.bottom.panel.1.1.1.6.text" text-anchor="middle" stroke="rgb(0,0,0)" opacity="1" fill="rgb(0,0,0)" stroke-opacity="1" fill-opacity="1" font-size="9.6" font-weight="normal" font-style="normal">
                  <tspan id="Fig:densplot_01.ticklabels.bottom.panel.1.1.1.6.tspan.1" dy="7.18" x="0">1000</tspan>
                </text>
              </g>
            </g>
          </g>
        </g>
        <defs>
          <clipPath id="Fig:densplot_01.panel.1.1.vp.2.clipPath">
            <rect x="44.8" y="42.19" width="231.2" height="191.81" fill="none" stroke="none"/>
          </clipPath>
        </defs>
        <g id="Fig:densplot_01.panel.1.1.vp.2" clip-path="url(#Fig:densplot_01.panel.1.1.vp.2.clipPath)">
          <g id="Fig:densplot_01.xyplot.lines.group.1.panel.1.1.1">
            <polyline id="Fig:densplot_01.xyplot.lines.group.1.panel.1.1.1.1" points="59.65,53.97 60.05,53.99 60.44,54.99 60.83,66.44 61.23,108.17 61.62,170.44 62.02,214.98 62.41,222.22 62.8,194.06 63.2,163.31 63.59,138.36 63.99,119.3 64.38,104.83 64.77,94.1 65.17,86.61 65.56,79.74 65.95,74.97 66.35,71.31 66.74,68.54 67.14,66.35 67.53,64.78 67.92,63.44 68.32,62.16 68.71,61.16 69.11,60.35 69.5,59.78 69.89,59.19 70.29,58.71 70.68,58.29 71.08,57.85 71.47,57.48 71.86,57.2 72.26,56.93 72.65,56.73 73.04,56.57 73.44,56.38 73.83,56.17 74.23,56.01 74.62,55.87 75.01,55.75 75.41,55.67 75.8,55.58 76.2,55.45 76.59,55.38 76.98,55.31 77.38,55.23 77.77,55.18 78.17,55.14 78.56,55.07 78.95,54.98 79.35,54.95 79.74,54.91 80.13,54.86 80.53,54.84 80.92,54.79 81.32,54.75 81.71,54.72 82.1,54.69 82.5,54.67 82.89,54.63 83.29,54.61 83.68,54.62 84.07,54.58 84.47,54.54 84.86,54.51 85.26,54.49 85.65,54.47 86.04,54.46 86.44,54.45 86.83,54.44 87.22,54.44 87.62,54.43 88.01,54.4 88.41,54.38 88.8,54.36 89.19,54.37 89.59,54.37 89.98,54.36 90.38,54.34 90.77,54.34 91.16,54.32 91.56,54.32 91.95,54.31 92.35,54.3 92.74,54.29 93.13,54.27 93.53,54.26 93.92,54.25 94.31,54.25 94.71,54.25 95.1,54.24 95.5,54.23 95.89,54.22 96.28,54.22 96.68,54.23 97.07,54.23 97.47,54.23 97.86,54.22 98.25,54.2 98.65,54.18 99.04,54.18 99.44,54.18 99.83,54.17 100.22,54.18 100.62,54.18 101.01,54.17 101.4,54.17 101.8,54.16 102.19,54.16 102.59,54.16 102.98,54.15 103.37,54.15 103.77,54.15 104.16,54.14 104.56,54.14 104.95,54.14 105.34,54.14 105.74,54.13 106.13,54.12 106.53,54.12 106.92,54.12 107.31,54.11 107.71,54.11 108.1,54.12 108.49,54.12 108.89,54.11 109.28,54.11 109.68,54.1 110.07,54.1 110.46,54.1 110.86,54.09 111.25,54.09 111.65,54.1 112.04,54.1 112.43,54.09 112.83,54.09 113.22,54.08 113.62,54.09 114.01,54.08 114.4,54.08 114.8,54.08 115.19,54.08 115.58,54.07 115.98,54.07 116.37,54.07 116.77,54.07 117.16,54.07 117.55,54.07 117.95,54.07 118.34,54.07 118.74,54.07 119.13,54.07 119.52,54.06 119.92,54.06 120.31,54.06 120.7,54.05 121.1,54.05 121.49,54.06 121.89,54.06 122.28,54.05 122.67,54.06 123.07,54.06 123.46,54.05 123.86,54.05 124.25,54.05 124.64,54.05 125.04,54.05 125.43,54.05 125.83,54.05 126.22,54.05 126.61,54.04 127.01,54.05 127.4,54.05 127.79,54.04 128.19,54.04 128.58,54.04 128.98,54.05 129.37,54.04 129.76,54.04 130.16,54.04 130.55,54.04 130.95,54.03 131.34,54.03 131.73,54.03 132.13,54.04 132.52,54.04 132.92,54.04 133.31,54.03 133.7,54.03 134.1,54.02 134.49,54.02 134.88,54.02 135.28,54.02 135.67,54.03 136.07,54.04 136.46,54.03 136.85,54.02 137.25,54.03 137.64,54.03 138.04,54.03 138.43,54.02 138.82,54.02 139.22,54.02 139.61,54.03 140.01,54.03 140.4,54.02 140.79,54.02 141.19,54.02 141.58,54.02 141.97,54.02 142.37,54.02 142.76,54.02 143.16,54.02 143.55,54.02 143.94,54.02 144.34,54.02 144.73,54.02 145.13,54.02 145.52,54.01 145.91,54.01 146.31,54.01 146.7,54.02 147.1,54.02 147.49,54.02 147.88,54.02 148.28,54.01 148.67,54.01 149.06,54.02 149.46,54.01 149.85,54.02 150.25,54.01 150.64,54.01 151.03,54.01 151.43,54.01 151.82,54.01 152.22,54.01 152.61,54.01 153,54.01 153.4,54.01 153.79,54.01 154.19,54.01 154.58,54.01 154.97,54.01 155.37,54.01 155.76,54.01 156.15,54.01 156.55,54 156.94,54.01 157.34,54.01 157.73,54.01 158.12,54.01 158.52,54 158.91,54.01 159.31,54.01 159.7,54.01 160.09,54 160.49,54 160.88,54.01 161.28,54 161.67,54 162.06,54 162.46,54 162.85,53.99 163.24,53.99 163.64,54 164.03,54 164.43,54 164.82,54 165.21,54 165.61,54 166,54 166.4,54 166.79,54 167.18,54 167.58,54 167.97,54 168.37,54 168.76,54 169.15,54 169.55,54 169.94,54 170.33,54 170.73,54 171.12,54 171.52,54 171.91,53.99 172.3,54 172.7,54 173.09,54 173.49,54 173.88,54 174.27,53.99 174.67,53.99 175.06,53.99 175.46,53.99 175.85,53.99 176.24,53.99 176.64,53.99 177.03,53.99 177.42,54 177.82,53.99 178.21,53.99 178.61,53.99 179,53.99 179.39,53.99 179.79,53.99 180.18,53.99 180.58,53.99 180.97,53.99 181.36,53.99 181.76,53.99 182.15,53.99 182.55,53.99 182.94,53.99 183.33,53.99 183.73,54 184.12,53.99 184.51,53.99 184.91,53.99 185.3,53.99 185.7,54 186.09,54 186.48,53.99 186.88,53.99 187.27,53.99 187.67,53.99 188.06,53.99 188.45,53.99 188.85,53.99 189.24,53.99 189.64,53.99 190.03,53.99 190.42,53.99 190.82,53.99 191.21,53.99 191.6,53.99 192,53.99 192.39,53.99 192.79,53.99 193.18,53.99 193.57,53.99 193.97,53.99 194.36,53.99 194.76,53.99 195.15,53.99 195.54,53.99 195.94,53.99 196.33,53.99 196.73,53.99 197.12,53.99 197.51,53.99 197.91,53.99 198.3,53.99 198.69,53.98 199.09,53.99 199.48,53.99 199.88,53.99 200.27,53.99 200.66,53.99 201.06,53.99 201.45,53.99 201.85,53.99 202.24,53.99 202.63,53.99 203.03,53.99 203.42,53.98 203.82,53.98 204.21,53.98 204.6,53.98 205,53.99 205.39,53.99 205.78,53.99 206.18,53.99 206.57,53.98 206.97,53.98 207.36,53.98 207.75,53.98 208.15,53.98 208.54,53.99 208.94,53.98 209.33,53.98 209.72,53.98 210.12,53.98 210.51,53.98 210.91,53.98 211.3,53.99 211.69,53.99 212.09,53.99 212.48,53.98 212.87,53.98 213.27,53.98 213.66,53.98 214.06,53.98 214.45,53.99 214.84,53.98 215.24,53.98 215.63,53.98 216.03,53.98 216.42,53.98 216.81,53.99 217.21,53.98 217.6,53.98 218,53.98 218.39,53.98 218.78,53.98 219.18,53.98 219.57,53.98 219.96,53.98 220.36,53.98 220.75,53.98 221.15,53.98 221.54,53.98 221.93,53.98 222.33,53.98 222.72,53.98 223.12,53.98 223.51,53.98 223.9,53.98 224.3,53.98 224.69,53.98 225.09,53.98 225.48,53.98 225.87,53.98 226.27,53.98 226.66,53.98 227.05,53.98 227.45,53.98 227.84,53.98 228.24,53.98 228.63,53.98 229.02,53.98 229.42,53.98 229.81,53.98 230.21,53.98 230.6,53.98 230.99,53.98 231.39,53.98 231.78,53.98 232.18,53.98 232.57,53.98 232.96,53.98 233.36,53.98 233.75,53.98 234.14,53.98 234.54,53.98 234.93,53.98 235.33,53.98 235.72,53.98 236.11,53.98 236.51,53.98 236.9,53.98 237.3,53.98 237.69,53.98 238.08,53.98 238.48,53.98 238.87,53.98 239.27,53.98 239.66,53.98 240.05,53.98 240.45,53.98 240.84,53.98 241.23,53.98 241.63,53.98 242.02,53.98 242.42,53.98 242.81,53.98 243.2,53.98 243.6,53.98 243.99,53.98 244.39,53.98 244.78,53.98 245.17,53.98 245.57,53.98 245.96,53.98 246.35,53.98 246.75,53.98 247.14,53.98 247.54,53.98 247.93,53.98 248.32,53.98 248.72,53.98 249.11,53.98 249.51,53.98 249.9,53.98 250.29,53.98 250.69,53.98 251.08,53.98 251.48,53.98 251.87,53.98 252.26,53.98 252.66,53.98 253.05,53.98 253.44,53.98 253.84,53.98 254.23,53.98 254.63,53.98 255.02,53.97 255.41,53.97 255.81,53.98 256.2,53.98 256.6,53.98 256.99,53.98 257.38,53.98 257.78,53.98 258.17,53.98 258.57,53.98 258.96,53.97 259.35,53.98 259.75,53.98 260.14,53.98 260.53,53.98 260.93,53.97" stroke-dasharray="none" stroke="rgb(31,120,180)" stroke-width="0.75" opacity="1" stroke-opacity="1" fill="none"/>
          </g>
          <g id="Fig:densplot_01.xyplot.lines.group.2.panel.1.1.1">
            <polyline id="Fig:densplot_01.xyplot.lines.group.2.panel.1.1.1.1" points="59.55,53.97 59.95,53.97 60.34,54.06 60.74,54.69 61.13,57.09 61.53,62.65 61.92,71.1 62.32,80.11 62.71,86.93 63.11,90.68 63.5,91.93 63.9,91.07 64.29,89 64.69,86.63 65.08,84.25 65.48,81.81 65.87,79.33 66.27,76.68 66.66,74.11 67.06,71.97 67.45,70.17 67.85,68.62 68.24,67.23 68.64,65.88 69.03,64.57 69.43,63.52 69.82,62.62 70.22,61.89 70.61,61.29 71.01,60.66 71.4,60 71.8,59.54 72.19,59.18 72.59,58.84 72.98,58.59 73.38,58.3 73.77,57.99 74.17,57.74 74.56,57.53 74.96,57.32 75.35,57.17 75.75,57.04 76.14,56.87 76.54,56.73 76.93,56.61 77.33,56.48 77.72,56.38 78.12,56.28 78.51,56.17 78.91,56.09 79.3,56.02 79.7,55.94 80.09,55.88 80.49,55.81 80.88,55.72 81.28,55.65 81.67,55.58 82.07,55.53 82.46,55.5 82.86,55.46 83.25,55.38 83.65,55.31 84.04,55.27 84.44,55.22 84.83,55.2 85.23,55.17 85.62,55.11 86.02,55.06 86.41,55.04 86.81,55.01 87.2,54.98 87.6,54.95 87.99,54.92 88.39,54.88 88.78,54.85 89.18,54.84 89.57,54.83 89.97,54.8 90.36,54.77 90.76,54.75 91.15,54.72 91.55,54.7 91.94,54.7 92.34,54.68 92.73,54.65 93.13,54.63 93.52,54.62 93.92,54.6 94.31,54.57 94.71,54.55 95.1,54.53 95.5,54.52 95.89,54.52 96.29,54.51 96.68,54.5 97.08,54.49 97.47,54.47 97.87,54.46 98.26,54.45 98.66,54.43 99.05,54.43 99.45,54.43 99.84,54.42 100.24,54.4 100.63,54.4 101.03,54.39 101.42,54.38 101.82,54.38 102.21,54.37 102.61,54.35 103,54.34 103.4,54.33 103.79,54.33 104.19,54.32 104.58,54.32 104.98,54.31 105.37,54.3 105.77,54.3 106.16,54.29 106.56,54.28 106.95,54.28 107.35,54.27 107.74,54.26 108.14,54.26 108.53,54.26 108.93,54.26 109.32,54.25 109.72,54.24 110.11,54.24 110.51,54.24 110.9,54.23 111.3,54.23 111.69,54.23 112.09,54.22 112.48,54.21 112.88,54.21 113.27,54.21 113.67,54.2 114.06,54.2 114.46,54.19 114.85,54.18 115.25,54.18 115.64,54.18 116.04,54.18 116.43,54.18 116.83,54.17 117.22,54.17 117.62,54.17 118.01,54.16 118.41,54.16 118.8,54.17 119.2,54.16 119.59,54.15 119.99,54.15 120.38,54.15 120.78,54.16 121.17,54.16 121.57,54.14 121.96,54.13 122.36,54.14 122.75,54.14 123.15,54.14 123.54,54.13 123.94,54.13 124.33,54.13 124.73,54.12 125.12,54.12 125.52,54.12 125.91,54.12 126.31,54.12 126.7,54.12 127.1,54.11 127.49,54.11 127.89,54.11 128.28,54.11 128.68,54.12 129.07,54.11 129.47,54.11 129.86,54.11 130.26,54.1 130.65,54.1 131.05,54.1 131.44,54.1 131.84,54.09 132.23,54.09 132.63,54.09 133.02,54.09 133.42,54.09 133.81,54.09 134.21,54.08 134.6,54.08 135,54.08 135.39,54.08 135.79,54.08 136.18,54.08 136.58,54.08 136.97,54.08 137.37,54.09 137.76,54.09 138.16,54.08 138.55,54.07 138.95,54.07 139.34,54.07 139.74,54.07 140.13,54.07 140.53,54.06 140.92,54.07 141.32,54.07 141.71,54.07 142.11,54.07 142.5,54.07 142.9,54.06 143.29,54.06 143.69,54.06 144.08,54.06 144.48,54.06 144.87,54.06 145.27,54.06 145.66,54.06 146.06,54.06 146.45,54.06 146.85,54.06 147.24,54.05 147.64,54.05 148.03,54.05 148.43,54.05 148.82,54.05 149.22,54.05 149.61,54.05 150.01,54.04 150.4,54.04 150.8,54.05 151.19,54.05 151.59,54.04 151.98,54.04 152.38,54.04 152.77,54.04 153.17,54.04 153.56,54.04 153.96,54.04 154.35,54.05 154.75,54.04 155.14,54.04 155.54,54.04 155.93,54.04 156.33,54.04 156.72,54.04 157.12,54.04 157.51,54.04 157.91,54.03 158.3,54.04 158.7,54.03 159.09,54.03 159.49,54.03 159.88,54.03 160.28,54.04 160.67,54.03 161.07,54.03 161.46,54.03 161.86,54.03 162.25,54.03 162.65,54.03 163.04,54.03 163.44,54.03 163.83,54.03 164.23,54.03 164.62,54.03 165.02,54.03 165.41,54.03 165.81,54.02 166.2,54.03 166.6,54.03 166.99,54.02 167.39,54.02 167.78,54.02 168.18,54.02 168.57,54.03 168.97,54.02 169.36,54.02 169.76,54.02 170.15,54.02 170.55,54.02 170.94,54.02 171.34,54.02 171.73,54.02 172.13,54.02 172.52,54.02 172.92,54.02 173.31,54.02 173.71,54.02 174.1,54.02 174.5,54.02 174.89,54.02 175.29,54.02 175.68,54.02 176.08,54.01 176.47,54.01 176.87,54.01 177.26,54.02 177.66,54.01 178.05,54.01 178.45,54.01 178.84,54.01 179.24,54.01 179.63,54.01 180.03,54.01 180.42,54.01 180.82,54.01 181.21,54.01 181.61,54.01 182,54.01 182.4,54.01 182.79,54.01 183.19,54.01 183.58,54.01 183.98,54.01 184.37,54.01 184.77,54.01 185.16,54.01 185.56,54.01 185.95,54.01 186.35,54.01 186.74,54.01 187.14,54.01 187.53,54.01 187.93,54.01 188.32,54.01 188.72,54.01 189.11,54.01 189.51,54.01 189.9,54.01 190.3,54.01 190.69,54.01 191.09,54.01 191.48,54.01 191.88,54.01 192.27,54.01 192.67,54.01 193.06,54 193.46,54 193.85,54 194.25,54 194.64,54 195.04,54 195.43,54 195.83,54 196.22,54.01 196.62,54 197.01,54 197.41,54.01 197.8,54.01 198.2,54 198.59,54 198.99,54 199.38,54.01 199.78,54 200.17,54 200.57,54 200.96,54 201.36,54 201.75,54 202.15,54 202.54,54 202.94,54 203.33,54 203.73,54 204.12,54 204.52,54 204.91,54 205.31,54 205.7,54 206.1,54 206.49,54 206.89,54 207.28,53.99 207.68,54 208.07,54 208.47,54 208.86,54 209.26,54 209.65,54 210.05,54 210.44,54 210.84,54 211.23,54 211.63,54 212.02,54 212.42,54 212.81,54 213.21,54 213.6,54 214,54 214.39,54 214.79,53.99 215.18,53.99 215.58,53.99 215.97,54 216.37,54 216.76,54 217.16,54 217.55,53.99 217.95,53.99 218.34,53.99 218.74,53.99 219.13,54 219.53,54 219.92,54 220.32,54 220.71,54 221.11,54 221.5,53.99 221.9,53.99 222.29,53.99 222.69,53.99 223.08,53.99 223.48,53.99 223.87,53.99 224.27,53.99 224.66,53.99 225.06,53.99 225.45,53.99 225.85,53.99 226.24,53.99 226.64,53.99 227.03,53.99 227.43,53.99 227.82,53.99 228.22,53.99 228.61,53.99 229.01,53.99 229.4,53.99 229.8,53.99 230.19,53.99 230.59,53.99 230.98,53.99 231.38,53.99 231.77,53.99 232.17,53.99 232.56,53.99 232.96,53.99 233.35,53.99 233.75,53.99 234.14,53.99 234.54,53.99 234.93,53.99 235.33,53.99 235.72,53.99 236.12,53.99 236.51,53.99 236.91,53.99 237.3,53.99 237.7,53.99 238.09,53.99 238.49,53.99 238.88,53.99 239.28,53.99 239.67,53.99 240.07,53.99 240.46,53.99 240.86,53.99 241.25,53.99 241.65,53.99 242.04,53.99 242.44,53.99 242.83,53.99 243.23,53.99 243.62,53.99 244.02,53.99 244.41,53.99 244.81,53.99 245.2,53.99 245.6,53.99 245.99,53.99 246.39,53.99 246.78,53.99 247.18,53.99 247.57,53.99 247.97,53.99 248.36,53.98 248.76,53.99 249.15,53.99 249.54,53.99 249.94,53.99 250.33,53.99 250.73,53.99 251.12,53.99 251.52,53.99 251.91,53.98 252.31,53.99 252.7,53.99 253.1,53.99 253.49,53.99 253.89,53.99 254.28,53.99 254.68,53.99 255.07,53.99 255.47,53.99 255.86,53.99 256.26,53.99 256.65,53.99 257.05,53.99 257.44,53.99 257.84,53.99 258.23,53.98 258.63,53.98 259.02,53.98 259.42,53.98 259.81,53.98 260.21,53.98 260.6,53.98 261,53.97 261.39,53.97" stroke-dasharray="none" stroke="rgb(31,120,180)" stroke-width="0.75" opacity="1" stroke-opacity="1" fill="none"/>
          </g>
          <g id="Fig:densplot_01.xyplot.lines.group.3.panel.1.1.1">
            <polyline id="Fig:densplot_01.xyplot.lines.group.3.panel.1.1.1.1" points="59.35,53.97 59.75,53.97 60.14,54.06 60.54,54.64 60.93,56.91 61.33,62.29 61.72,70.36 62.12,78.59 62.51,84.66 62.91,87.79 63.31,88.77 63.7,88.65 64.1,87.52 64.49,85.41 64.89,83.29 65.28,81.25 65.68,79.08 66.07,77.03 66.47,74.99 66.86,72.87 67.26,71.05 67.65,69.48 68.05,68.13 68.45,66.91 68.84,65.69 69.24,64.49 69.63,63.53 70.03,62.71 70.42,61.98 70.82,61.39 71.21,60.79 71.61,60.14 72,59.63 72.4,59.23 72.8,58.89 73.19,58.62 73.59,58.35 73.98,58.02 74.38,57.73 74.77,57.51 75.17,57.33 75.56,57.17 75.96,56.99 76.35,56.81 76.75,56.68 77.15,56.56 77.54,56.45 77.94,56.39 78.33,56.26 78.73,56.13 79.12,56.04 79.52,55.96 79.91,55.9 80.31,55.85 80.7,55.75 81.1,55.66 81.49,55.6 81.89,55.55 82.29,55.49 82.68,55.46 83.08,55.39 83.47,55.32 83.87,55.27 84.26,55.22 84.66,55.19 85.05,55.18 85.45,55.13 85.84,55.08 86.24,55.04 86.64,55.01 87.03,54.99 87.43,54.99 87.82,54.94 88.22,54.89 88.61,54.87 89.01,54.85 89.4,54.84 89.8,54.81 90.19,54.78 90.59,54.75 90.99,54.72 91.38,54.69 91.78,54.67 92.17,54.67 92.57,54.65 92.96,54.63 93.36,54.61 93.75,54.59 94.15,54.58 94.54,54.57 94.94,54.55 95.33,54.53 95.73,54.52 96.13,54.51 96.52,54.49 96.92,54.47 97.31,54.46 97.71,54.46 98.1,54.45 98.5,54.44 98.89,54.43 99.29,54.42 99.68,54.42 100.08,54.41 100.48,54.39 100.87,54.38 101.27,54.38 101.66,54.38 102.06,54.36 102.45,54.34 102.85,54.33 103.24,54.33 103.64,54.33 104.03,54.32 104.43,54.31 104.83,54.3 105.22,54.3 105.62,54.3 106.01,54.29 106.41,54.28 106.8,54.27 107.2,54.27 107.59,54.27 107.99,54.26 108.38,54.26 108.78,54.26 109.17,54.25 109.57,54.24 109.97,54.24 110.36,54.23 110.76,54.23 111.15,54.23 111.55,54.22 111.94,54.21 112.34,54.2 112.73,54.2 113.13,54.21 113.52,54.21 113.92,54.2 114.32,54.2 114.71,54.19 115.11,54.19 115.5,54.18 115.9,54.17 116.29,54.17 116.69,54.17 117.08,54.17 117.48,54.17 117.87,54.17 118.27,54.16 118.67,54.16 119.06,54.15 119.46,54.15 119.85,54.15 120.25,54.15 120.64,54.15 121.04,54.15 121.43,54.15 121.83,54.15 122.22,54.14 122.62,54.14 123.01,54.13 123.41,54.13 123.81,54.13 124.2,54.13 124.6,54.13 124.99,54.13 125.39,54.12 125.78,54.11 126.18,54.11 126.57,54.11 126.97,54.11 127.36,54.12 127.76,54.12 128.16,54.11 128.55,54.11 128.95,54.11 129.34,54.11 129.74,54.11 130.13,54.1 130.53,54.1 130.92,54.1 131.32,54.1 131.71,54.09 132.11,54.1 132.5,54.09 132.9,54.09 133.3,54.09 133.69,54.09 134.09,54.09 134.48,54.09 134.88,54.09 135.27,54.08 135.67,54.08 136.06,54.08 136.46,54.08 136.85,54.08 137.25,54.08 137.65,54.08 138.04,54.08 138.44,54.08 138.83,54.08 139.23,54.08 139.62,54.08 140.02,54.07 140.41,54.07 140.81,54.06 141.2,54.07 141.6,54.07 142,54.07 142.39,54.06 142.79,54.06 143.18,54.06 143.58,54.06 143.97,54.06 144.37,54.06 144.76,54.06 145.16,54.06 145.55,54.06 145.95,54.06 146.34,54.06 146.74,54.06 147.14,54.06 147.53,54.06 147.93,54.06 148.32,54.06 148.72,54.06 149.11,54.05 149.51,54.05 149.9,54.05 150.3,54.05 150.69,54.05 151.09,54.05 151.49,54.05 151.88,54.05 152.28,54.05 152.67,54.05 153.07,54.05 153.46,54.05 153.86,54.05 154.25,54.05 154.65,54.05 155.04,54.05 155.44,54.04 155.84,54.04 156.23,54.04 156.63,54.04 157.02,54.04 157.42,54.04 157.81,54.04 158.21,54.04 158.6,54.03 159,54.03 159.39,54.04 159.79,54.04 160.18,54.04 160.58,54.04 160.98,54.03 161.37,54.03 161.77,54.03 162.16,54.03 162.56,54.03 162.95,54.03 163.35,54.03 163.74,54.03 164.14,54.03 164.53,54.03 164.93,54.03 165.33,54.03 165.72,54.03 166.12,54.03 166.51,54.03 166.91,54.03 167.3,54.03 167.7,54.04 168.09,54.03 168.49,54.03 168.88,54.02 169.28,54.02 169.68,54.03 170.07,54.02 170.47,54.02 170.86,54.02 171.26,54.02 171.65,54.02 172.05,54.02 172.44,54.02 172.84,54.02 173.23,54.02 173.63,54.02 174.02,54.02 174.42,54.02 174.82,54.02 175.21,54.02 175.61,54.02 176,54.02 176.4,54.02 176.79,54.02 177.19,54.02 177.58,54.02 177.98,54.02 178.37,54.02 178.77,54.02 179.17,54.02 179.56,54.02 179.96,54.02 180.35,54.02 180.75,54.02 181.14,54.01 181.54,54.01 181.93,54.01 182.33,54.01 182.72,54.01 183.12,54.02 183.52,54.02 183.91,54.02 184.31,54.02 184.7,54.01 185.1,54.02 185.49,54.02 185.89,54.02 186.28,54.01 186.68,54.01 187.07,54.01 187.47,54.01 187.86,54.01 188.26,54.01 188.66,54.01 189.05,54.01 189.45,54.01 189.84,54.01 190.24,54.01 190.63,54.01 191.03,54.01 191.42,54.01 191.82,54.01 192.21,54.01 192.61,54.01 193.01,54.01 193.4,54.01 193.8,54.01 194.19,54 194.59,54 194.98,54.01 195.38,54.01 195.77,54.01 196.17,54.01 196.56,54.01 196.96,54 197.36,54 197.75,54.01 198.15,54.01 198.54,54.01 198.94,54 199.33,54 199.73,54 200.12,54.01 200.52,54.01 200.91,54 201.31,54 201.7,54 202.1,54 202.5,54.01 202.89,54.01 203.29,54 203.68,54 204.08,54 204.47,54 204.87,54 205.26,54 205.66,54 206.05,54.01 206.45,54 206.85,54 207.24,54 207.64,54 208.03,54 208.43,54 208.82,54 209.22,54 209.61,54 210.01,54 210.4,54 210.8,54 211.2,54 211.59,54 211.99,54 212.38,54 212.78,54 213.17,54 213.57,53.99 213.96,53.99 214.36,54 214.75,54 215.15,54 215.54,54 215.94,54 216.34,54 216.73,54 217.13,54 217.52,54 217.92,54 218.31,54 218.71,54 219.1,54 219.5,54 219.89,54 220.29,54 220.69,54 221.08,54 221.48,53.99 221.87,53.99 222.27,54 222.66,54 223.06,54 223.45,54 223.85,54 224.24,54 224.64,54 225.04,53.99 225.43,53.99 225.83,54 226.22,54 226.62,54 227.01,54 227.41,53.99 227.8,53.99 228.2,53.99 228.59,53.99 228.99,53.99 229.38,53.99 229.78,53.99 230.18,53.99 230.57,53.99 230.97,53.99 231.36,53.99 231.76,53.99 232.15,53.99 232.55,53.99 232.94,53.99 233.34,53.99 233.73,53.99 234.13,53.99 234.53,53.99 234.92,53.99 235.32,53.99 235.71,53.99 236.11,53.99 236.5,53.99 236.9,53.99 237.29,53.99 237.69,53.99 238.08,53.99 238.48,53.99 238.88,53.99 239.27,53.99 239.67,53.99 240.06,53.99 240.46,53.99 240.85,53.99 241.25,53.99 241.64,53.99 242.04,53.99 242.43,53.99 242.83,53.99 243.22,53.99 243.62,53.99 244.02,53.99 244.41,53.99 244.81,53.99 245.2,53.99 245.6,53.99 245.99,53.99 246.39,53.99 246.78,53.99 247.18,53.99 247.57,53.99 247.97,53.99 248.37,53.99 248.76,53.99 249.16,53.99 249.55,53.99 249.95,53.99 250.34,53.99 250.74,53.99 251.13,53.99 251.53,53.99 251.92,53.99 252.32,53.99 252.72,53.99 253.11,53.99 253.51,53.99 253.9,53.99 254.3,53.99 254.69,53.99 255.09,53.99 255.48,53.99 255.88,53.99 256.27,53.99 256.67,53.99 257.06,53.99 257.46,53.99 257.86,53.98 258.25,53.99 258.65,53.99 259.04,53.99 259.44,53.99 259.83,53.99 260.23,53.99 260.62,53.98 261.02,53.97 261.41,53.97" stroke-dasharray="none" stroke="rgb(31,120,180)" stroke-width="0.75" opacity="1" stroke-opacity="1" fill="none"/>
          </g>
          <g id="Fig:densplot_01.xyplot.lines.group.4.panel.1.1.1">
            <polyline id="Fig:densplot_01.xyplot.lines.group.4.panel.1.1.1.1" points="59.46,53.97 59.85,53.97 60.25,54.13 60.64,55.46 61.04,60.66 61.43,71.77 61.83,87.04 62.22,101.43 62.62,110.85 63.01,113.98 63.4,111.53 63.8,106.41 64.19,100.56 64.59,94.45 64.98,88.84 65.38,84.08 65.77,79.46 66.17,75.24 66.56,72.23 66.96,69.66 67.35,67.59 67.75,65.95 68.14,64.64 68.54,63.32 68.93,62.3 69.32,61.48 69.72,60.81 70.11,60.27 70.51,59.81 70.9,59.25 71.3,58.79 71.69,58.45 72.09,58.15 72.48,57.86 72.88,57.62 73.27,57.41 73.67,57.14 74.06,56.96 74.46,56.75 74.85,56.58 75.24,56.45 75.64,56.33 76.03,56.18 76.43,56.05 76.82,55.94 77.22,55.81 77.61,55.72 78.01,55.67 78.4,55.58 78.8,55.48 79.19,55.41 79.59,55.34 79.98,55.28 80.37,55.21 80.77,55.16 81.16,55.08 81.56,55.04 81.95,55 82.35,54.94 82.74,54.91 83.14,54.89 83.53,54.86 83.93,54.81 84.32,54.77 84.72,54.74 85.11,54.72 85.51,54.69 85.9,54.67 86.29,54.62 86.69,54.6 87.08,54.56 87.48,54.56 87.87,54.54 88.27,54.54 88.66,54.51 89.06,54.49 89.45,54.48 89.85,54.45 90.24,54.46 90.64,54.44 91.03,54.43 91.42,54.4 91.82,54.38 92.21,54.38 92.61,54.38 93,54.37 93.4,54.35 93.79,54.32 94.19,54.31 94.58,54.32 94.98,54.31 95.37,54.3 95.77,54.29 96.16,54.28 96.56,54.28 96.95,54.27 97.34,54.26 97.74,54.26 98.13,54.26 98.53,54.25 98.92,54.23 99.32,54.23 99.71,54.22 100.11,54.21 100.5,54.21 100.9,54.21 101.29,54.2 101.69,54.2 102.08,54.21 102.47,54.19 102.87,54.19 103.26,54.19 103.66,54.18 104.05,54.17 104.45,54.18 104.84,54.17 105.24,54.15 105.63,54.16 106.03,54.17 106.42,54.14 106.82,54.14 107.21,54.15 107.61,54.14 108,54.14 108.39,54.14 108.79,54.14 109.18,54.13 109.58,54.13 109.97,54.13 110.37,54.12 110.76,54.11 111.16,54.11 111.55,54.12 111.95,54.11 112.34,54.11 112.74,54.11 113.13,54.11 113.53,54.11 113.92,54.1 114.31,54.1 114.71,54.1 115.1,54.1 115.5,54.09 115.89,54.09 116.29,54.09 116.68,54.09 117.08,54.09 117.47,54.09 117.87,54.09 118.26,54.09 118.66,54.08 119.05,54.08 119.44,54.08 119.84,54.08 120.23,54.08 120.63,54.08 121.02,54.08 121.42,54.07 121.81,54.06 122.21,54.07 122.6,54.07 123,54.07 123.39,54.07 123.79,54.07 124.18,54.07 124.58,54.06 124.97,54.06 125.36,54.06 125.76,54.06 126.15,54.06 126.55,54.05 126.94,54.05 127.34,54.06 127.73,54.06 128.13,54.06 128.52,54.05 128.92,54.05 129.31,54.05 129.71,54.06 130.1,54.05 130.49,54.05 130.89,54.05 131.28,54.05 131.68,54.05 132.07,54.06 132.47,54.05 132.86,54.05 133.26,54.04 133.65,54.04 134.05,54.04 134.44,54.04 134.84,54.03 135.23,54.04 135.63,54.04 136.02,54.04 136.41,54.04 136.81,54.04 137.2,54.04 137.6,54.04 137.99,54.03 138.39,54.03 138.78,54.03 139.18,54.03 139.57,54.04 139.97,54.03 140.36,54.04 140.76,54.04 141.15,54.03 141.54,54.03 141.94,54.03 142.33,54.03 142.73,54.03 143.12,54.03 143.52,54.03 143.91,54.03 144.31,54.03 144.7,54.03 145.1,54.02 145.49,54.02 145.89,54.02 146.28,54.02 146.68,54.02 147.07,54.02 147.46,54.03 147.86,54.02 148.25,54.02 148.65,54.02 149.04,54.02 149.44,54.02 149.83,54.02 150.23,54.02 150.62,54.02 151.02,54.02 151.41,54.02 151.81,54.02 152.2,54.02 152.6,54.02 152.99,54.02 153.38,54.02 153.78,54.02 154.17,54.02 154.57,54.01 154.96,54.01 155.36,54.01 155.75,54.01 156.15,54.02 156.54,54.01 156.94,54.01 157.33,54.02 157.73,54.02 158.12,54.01 158.51,54.01 158.91,54.01 159.3,54.01 159.7,54.01 160.09,54.01 160.49,54.01 160.88,54.01 161.28,54.01 161.67,54.01 162.07,54.01 162.46,54.01 162.86,54.01 163.25,54.01 163.65,54.01 164.04,54.01 164.43,54 164.83,54.01 165.22,54.01 165.62,54.01 166.01,54.01 166.41,54.01 166.8,54 167.2,54.01 167.59,54 167.99,54 168.38,54 168.78,54.01 169.17,54.01 169.56,54.01 169.96,54 170.35,54 170.75,54 171.14,54 171.54,54 171.93,54 172.33,54 172.72,54 173.12,54 173.51,54 173.91,54 174.3,54 174.7,54 175.09,54 175.48,54 175.88,54 176.27,54 176.67,54 177.06,54 177.46,54 177.85,54 178.25,53.99 178.64,53.99 179.04,54 179.43,54 179.83,54 180.22,54 180.61,54 181.01,54 181.4,54 181.8,54 182.19,54 182.59,54 182.98,54 183.38,54 183.77,53.99 184.17,54 184.56,54 184.96,54 185.35,54 185.75,54 186.14,53.99 186.53,54 186.93,53.99 187.32,53.99 187.72,53.99 188.11,54 188.51,54 188.9,54 189.3,53.99 189.69,53.99 190.09,53.99 190.48,53.99 190.88,53.99 191.27,53.99 191.67,53.99 192.06,53.99 192.45,53.99 192.85,53.99 193.24,53.99 193.64,53.99 194.03,53.99 194.43,53.99 194.82,53.99 195.22,53.99 195.61,54 196.01,53.99 196.4,53.99 196.8,53.99 197.19,53.99 197.58,53.99 197.98,53.99 198.37,53.99 198.77,53.99 199.16,53.99 199.56,53.99 199.95,53.99 200.35,53.99 200.74,53.99 201.14,53.99 201.53,53.99 201.93,53.99 202.32,53.99 202.72,53.99 203.11,53.99 203.5,53.99 203.9,53.99 204.29,53.99 204.69,53.99 205.08,53.99 205.48,53.99 205.87,53.98 206.27,53.99 206.66,53.99 207.06,53.99 207.45,53.99 207.85,53.99 208.24,53.99 208.63,53.99 209.03,53.99 209.42,53.99 209.82,53.99 210.21,53.99 210.61,53.99 211,53.99 211.4,53.99 211.79,53.99 212.19,53.99 212.58,53.99 212.98,53.99 213.37,53.99 213.77,53.99 214.16,53.99 214.55,53.99 214.95,53.99 215.34,53.99 215.74,53.98 216.13,53.98 216.53,53.98 216.92,53.98 217.32,53.98 217.71,53.99 218.11,53.99 218.5,53.98 218.9,53.98 219.29,53.98 219.68,53.98 220.08,53.99 220.47,53.99 220.87,53.99 221.26,53.99 221.66,53.99 222.05,53.98 222.45,53.99 222.84,53.98 223.24,53.98 223.63,53.98 224.03,53.99 224.42,53.99 224.82,53.98 225.21,53.98 225.6,53.98 226,53.98 226.39,53.99 226.79,53.98 227.18,53.98 227.58,53.98 227.97,53.98 228.37,53.98 228.76,53.99 229.16,53.98 229.55,53.98 229.95,53.98 230.34,53.99 230.74,53.98 231.13,53.98 231.52,53.98 231.92,53.98 232.31,53.98 232.71,53.98 233.1,53.98 233.5,53.98 233.89,53.98 234.29,53.98 234.68,53.98 235.08,53.98 235.47,53.99 235.87,53.98 236.26,53.98 236.65,53.98 237.05,53.98 237.44,53.98 237.84,53.98 238.23,53.98 238.63,53.98 239.02,53.98 239.42,53.98 239.81,53.98 240.21,53.98 240.6,53.98 241,53.98 241.39,53.98 241.79,53.98 242.18,53.98 242.57,53.98 242.97,53.98 243.36,53.98 243.76,53.98 244.15,53.98 244.55,53.98 244.94,53.99 245.34,53.98 245.73,53.98 246.13,53.98 246.52,53.98 246.92,53.98 247.31,53.98 247.7,53.98 248.1,53.98 248.49,53.98 248.89,53.98 249.28,53.98 249.68,53.98 250.07,53.98 250.47,53.98 250.86,53.98 251.26,53.98 251.65,53.98 252.05,53.98 252.44,53.98 252.84,53.98 253.23,53.98 253.62,53.98 254.02,53.98 254.41,53.98 254.81,53.98 255.2,53.98 255.6,53.98 255.99,53.98 256.39,53.98 256.78,53.98 257.18,53.98 257.57,53.98 257.97,53.98 258.36,53.98 258.75,53.98 259.15,53.98 259.54,53.98 259.94,53.98 260.33,53.98 260.73,53.97 261.12,53.97" stroke-dasharray="none" stroke="rgb(31,120,180)" stroke-width="0.75" opacity="1" stroke-opacity="1" fill="none"/>
          </g>
          <g id="Fig:densplot_01.xyplot.lines.group.5.panel.1.1.1">
            <polyline id="Fig:densplot_01.xyplot.lines.group.5.panel.1.1.1.1" points="59.5,53.97 59.89,53.98 60.29,54.15 60.68,55.6 61.08,61.7 61.47,76.3 61.86,97.43 62.26,115.72 62.65,123.84 63.05,123.23 63.44,117.9 63.84,110.64 64.23,103.29 64.63,95.93 65.02,88.6 65.41,83.31 65.81,78.56 66.2,74.59 66.6,71.52 66.99,69.12 67.39,66.81 67.78,65.05 68.18,63.78 68.57,62.7 68.97,61.76 69.36,61.05 69.75,60.37 70.15,59.66 70.54,59.2 70.94,58.78 71.33,58.38 71.73,58.04 72.12,57.88 72.52,57.49 72.91,57.23 73.3,57.04 73.7,56.87 74.09,56.62 74.49,56.5 74.88,56.34 75.28,56.14 75.67,56.03 76.07,55.92 76.46,55.83 76.86,55.73 77.25,55.67 77.64,55.54 78.04,55.49 78.43,55.4 78.83,55.32 79.22,55.23 79.62,55.22 80.01,55.15 80.41,55.09 80.8,55.07 81.19,55 81.59,54.95 81.98,54.91 82.38,54.91 82.77,54.8 83.17,54.79 83.56,54.74 83.96,54.71 84.35,54.67 84.74,54.69 85.14,54.66 85.53,54.62 85.93,54.61 86.32,54.57 86.72,54.55 87.11,54.54 87.51,54.53 87.9,54.5 88.3,54.5 88.69,54.49 89.08,54.46 89.48,54.44 89.87,54.44 90.27,54.42 90.66,54.4 91.06,54.39 91.45,54.39 91.85,54.37 92.24,54.36 92.63,54.36 93.03,54.33 93.42,54.32 93.82,54.31 94.21,54.31 94.61,54.3 95,54.31 95.4,54.28 95.79,54.27 96.19,54.27 96.58,54.25 96.97,54.26 97.37,54.26 97.76,54.26 98.16,54.25 98.55,54.24 98.95,54.24 99.34,54.23 99.74,54.21 100.13,54.21 100.52,54.21 100.92,54.2 101.31,54.2 101.71,54.2 102.1,54.19 102.5,54.19 102.89,54.19 103.29,54.17 103.68,54.17 104.08,54.17 104.47,54.16 104.86,54.16 105.26,54.16 105.65,54.16 106.05,54.15 106.44,54.14 106.84,54.15 107.23,54.15 107.63,54.15 108.02,54.15 108.41,54.14 108.81,54.14 109.2,54.13 109.6,54.13 109.99,54.13 110.39,54.12 110.78,54.12 111.18,54.11 111.57,54.11 111.97,54.11 112.36,54.1 112.75,54.11 113.15,54.11 113.54,54.11 113.94,54.1 114.33,54.1 114.73,54.1 115.12,54.1 115.52,54.1 115.91,54.1 116.3,54.09 116.7,54.09 117.09,54.08 117.49,54.08 117.88,54.09 118.28,54.09 118.67,54.08 119.07,54.08 119.46,54.08 119.85,54.08 120.25,54.08 120.64,54.08 121.04,54.08 121.43,54.07 121.83,54.07 122.22,54.07 122.62,54.07 123.01,54.07 123.41,54.07 123.8,54.07 124.19,54.06 124.59,54.06 124.98,54.06 125.38,54.06 125.77,54.06 126.17,54.06 126.56,54.06 126.96,54.05 127.35,54.05 127.74,54.05 128.14,54.05 128.53,54.05 128.93,54.05 129.32,54.05 129.72,54.06 130.11,54.06 130.51,54.06 130.9,54.05 131.3,54.05 131.69,54.05 132.08,54.05 132.48,54.05 132.87,54.05 133.27,54.05 133.66,54.05 134.06,54.05 134.45,54.05 134.85,54.04 135.24,54.04 135.63,54.04 136.03,54.04 136.42,54.04 136.82,54.04 137.21,54.04 137.61,54.04 138,54.04 138.4,54.04 138.79,54.04 139.19,54.03 139.58,54.03 139.97,54.03 140.37,54.03 140.76,54.03 141.16,54.03 141.55,54.03 141.95,54.04 142.34,54.03 142.74,54.03 143.13,54.03 143.52,54.03 143.92,54.03 144.31,54.03 144.71,54.02 145.1,54.03 145.5,54.03 145.89,54.03 146.29,54.03 146.68,54.02 147.08,54.02 147.47,54.02 147.86,54.02 148.26,54.02 148.65,54.02 149.05,54.03 149.44,54.02 149.84,54.02 150.23,54.02 150.63,54.01 151.02,54.02 151.41,54.02 151.81,54.02 152.2,54.02 152.6,54.02 152.99,54.02 153.39,54.02 153.78,54.02 154.18,54.02 154.57,54.02 154.96,54.02 155.36,54.01 155.75,54.02 156.15,54.02 156.54,54.02 156.94,54.02 157.33,54.02 157.73,54.02 158.12,54.01 158.52,54.02 158.91,54.01 159.3,54.01 159.7,54.01 160.09,54.01 160.49,54.01 160.88,54.01 161.28,54.01 161.67,54.01 162.07,54.01 162.46,54.01 162.85,54.01 163.25,54.01 163.64,54 164.04,54.01 164.43,54.01 164.83,54.01 165.22,54.01 165.62,54.01 166.01,54.01 166.41,54.01 166.8,54.01 167.19,54 167.59,54 167.98,54.01 168.38,54 168.77,54 169.17,54.01 169.56,54.01 169.96,54 170.35,54 170.74,54 171.14,54 171.53,54 171.93,54.01 172.32,54.01 172.72,54 173.11,54 173.51,54 173.9,54 174.3,54 174.69,54 175.08,54 175.48,54 175.87,54 176.27,54 176.66,54 177.06,54 177.45,54 177.85,54 178.24,54 178.63,54 179.03,54 179.42,54 179.82,54 180.21,54 180.61,54 181,54 181.4,54 181.79,54 182.19,54 182.58,54 182.97,53.99 183.37,54 183.76,53.99 184.16,54 184.55,54 184.95,54 185.34,54 185.74,54 186.13,54 186.52,54 186.92,53.99 187.31,54 187.71,54 188.1,54 188.5,53.99 188.89,53.99 189.29,53.99 189.68,53.99 190.07,53.99 190.47,53.99 190.86,53.99 191.26,53.99 191.65,53.99 192.05,53.99 192.44,53.99 192.84,53.99 193.23,54 193.63,53.99 194.02,53.99 194.41,53.99 194.81,53.99 195.2,53.99 195.6,53.99 195.99,53.99 196.39,53.99 196.78,53.99 197.18,53.99 197.57,53.99 197.96,53.99 198.36,53.99 198.75,53.99 199.15,53.99 199.54,53.99 199.94,53.99 200.33,53.99 200.73,53.99 201.12,53.99 201.52,53.99 201.91,53.99 202.3,53.99 202.7,53.99 203.09,53.99 203.49,53.99 203.88,53.99 204.28,53.99 204.67,53.99 205.07,53.99 205.46,53.99 205.85,53.99 206.25,53.99 206.64,53.99 207.04,53.99 207.43,53.99 207.83,53.99 208.22,53.99 208.62,53.99 209.01,53.99 209.41,53.99 209.8,53.99 210.19,53.99 210.59,53.99 210.98,53.99 211.38,53.99 211.77,53.99 212.17,53.99 212.56,53.99 212.96,53.99 213.35,53.99 213.74,53.99 214.14,53.99 214.53,53.99 214.93,53.99 215.32,53.99 215.72,53.99 216.11,53.99 216.51,53.99 216.9,53.99 217.3,53.99 217.69,53.99 218.08,53.99 218.48,53.99 218.87,53.99 219.27,53.99 219.66,53.98 220.06,53.99 220.45,53.99 220.85,53.99 221.24,53.98 221.63,53.99 222.03,53.99 222.42,53.99 222.82,53.99 223.21,53.98 223.61,53.98 224,53.98 224.4,53.98 224.79,53.99 225.19,53.98 225.58,53.98 225.97,53.98 226.37,53.98 226.76,53.98 227.16,53.98 227.55,53.99 227.95,53.98 228.34,53.98 228.74,53.98 229.13,53.98 229.52,53.98 229.92,53.98 230.31,53.99 230.71,53.99 231.1,53.99 231.5,53.98 231.89,53.98 232.29,53.98 232.68,53.98 233.07,53.98 233.47,53.98 233.86,53.99 234.26,53.98 234.65,53.98 235.05,53.98 235.44,53.98 235.84,53.98 236.23,53.98 236.63,53.98 237.02,53.98 237.41,53.98 237.81,53.99 238.2,53.99 238.6,53.98 238.99,53.98 239.39,53.98 239.78,53.98 240.18,53.98 240.57,53.98 240.96,53.98 241.36,53.98 241.75,53.98 242.15,53.98 242.54,53.98 242.94,53.98 243.33,53.98 243.73,53.98 244.12,53.98 244.52,53.98 244.91,53.98 245.3,53.98 245.7,53.98 246.09,53.98 246.49,53.98 246.88,53.98 247.28,53.98 247.67,53.98 248.07,53.98 248.46,53.98 248.85,53.98 249.25,53.98 249.64,53.98 250.04,53.98 250.43,53.98 250.83,53.98 251.22,53.98 251.62,53.98 252.01,53.98 252.41,53.98 252.8,53.98 253.19,53.98 253.59,53.98 253.98,53.98 254.38,53.98 254.77,53.98 255.17,53.98 255.56,53.98 255.96,53.98 256.35,53.98 256.74,53.98 257.14,53.98 257.53,53.98 257.93,53.98 258.32,53.98 258.72,53.98 259.11,53.98 259.51,53.98 259.9,53.98 260.3,53.98 260.69,53.98 261.08,53.97" stroke-dasharray="none" stroke="rgb(31,120,180)" stroke-width="0.75" opacity="1" stroke-opacity="1" fill="none"/>
          </g>
          <g id="Fig:densplot_01.xyplot.lines.group.6.panel.1.1.1">
            <polyline id="Fig:densplot_01.xyplot.lines.group.6.panel.1.1.1.1" points="59.08,53.97 59.47,53.97 59.87,53.99 60.27,54.13 60.66,54.77 61.06,56.71 61.46,60.76 61.85,66.7 62.25,73.1 62.65,78.47 63.04,82.18 63.44,84.43 63.84,85.47 64.23,85.16 64.63,83.97 65.03,82.48 65.42,80.78 65.82,78.89 66.22,76.79 66.61,74.53 67.01,72.47 67.4,70.68 67.8,69.09 68.2,67.71 68.59,66.32 68.99,65.04 69.39,63.95 69.78,63.04 70.18,62.34 70.58,61.68 70.97,61 71.37,60.4 71.77,59.92 72.16,59.58 72.56,59.31 72.96,58.98 73.35,58.68 73.75,58.45 74.15,58.23 74.54,58.05 74.94,57.87 75.33,57.67 75.73,57.47 76.13,57.32 76.52,57.22 76.92,57.14 77.32,57.02 77.71,56.89 78.11,56.78 78.51,56.71 78.9,56.65 79.3,56.57 79.7,56.46 80.09,56.36 80.49,56.28 80.89,56.23 81.28,56.18 81.68,56.09 82.08,56 82.47,55.93 82.87,55.88 83.26,55.83 83.66,55.78 84.06,55.73 84.45,55.68 84.85,55.63 85.25,55.58 85.64,55.53 86.04,55.48 86.44,55.43 86.83,55.38 87.23,55.36 87.63,55.33 88.02,55.31 88.42,55.27 88.82,55.23 89.21,55.19 89.61,55.16 90,55.14 90.4,55.11 90.8,55.08 91.19,55.05 91.59,55.02 91.99,55 92.38,54.98 92.78,54.96 93.18,54.93 93.57,54.91 93.97,54.89 94.37,54.87 94.76,54.84 95.16,54.8 95.56,54.78 95.95,54.77 96.35,54.77 96.75,54.76 97.14,54.74 97.54,54.72 97.93,54.71 98.33,54.69 98.73,54.67 99.12,54.66 99.52,54.64 99.92,54.62 100.31,54.61 100.71,54.6 101.11,54.59 101.5,54.57 101.9,54.56 102.3,54.55 102.69,54.54 103.09,54.54 103.49,54.53 103.88,54.52 104.28,54.5 104.68,54.48 105.07,54.48 105.47,54.47 105.86,54.45 106.26,54.44 106.66,54.43 107.05,54.42 107.45,54.42 107.85,54.41 108.24,54.41 108.64,54.4 109.04,54.4 109.43,54.39 109.83,54.39 110.23,54.38 110.62,54.37 111.02,54.35 111.42,54.34 111.81,54.34 112.21,54.34 112.61,54.34 113,54.34 113.4,54.33 113.79,54.32 114.19,54.31 114.59,54.31 114.98,54.3 115.38,54.29 115.78,54.28 116.17,54.28 116.57,54.28 116.97,54.27 117.36,54.27 117.76,54.26 118.16,54.26 118.55,54.27 118.95,54.26 119.35,54.26 119.74,54.25 120.14,54.25 120.53,54.24 120.93,54.24 121.33,54.23 121.72,54.23 122.12,54.22 122.52,54.21 122.91,54.21 123.31,54.21 123.71,54.21 124.1,54.21 124.5,54.2 124.9,54.2 125.29,54.2 125.69,54.2 126.09,54.19 126.48,54.19 126.88,54.19 127.28,54.19 127.67,54.18 128.07,54.17 128.46,54.17 128.86,54.17 129.26,54.17 129.65,54.17 130.05,54.17 130.45,54.16 130.84,54.16 131.24,54.16 131.64,54.16 132.03,54.15 132.43,54.15 132.83,54.16 133.22,54.16 133.62,54.15 134.02,54.15 134.41,54.15 134.81,54.14 135.21,54.14 135.6,54.14 136,54.14 136.39,54.13 136.79,54.13 137.19,54.13 137.58,54.13 137.98,54.13 138.38,54.13 138.77,54.13 139.17,54.12 139.57,54.12 139.96,54.11 140.36,54.11 140.76,54.11 141.15,54.11 141.55,54.11 141.95,54.11 142.34,54.11 142.74,54.11 143.14,54.11 143.53,54.11 143.93,54.11 144.32,54.11 144.72,54.1 145.12,54.1 145.51,54.1 145.91,54.09 146.31,54.09 146.7,54.09 147.1,54.09 147.5,54.09 147.89,54.09 148.29,54.08 148.69,54.08 149.08,54.08 149.48,54.08 149.88,54.09 150.27,54.09 150.67,54.09 151.07,54.09 151.46,54.08 151.86,54.08 152.25,54.08 152.65,54.08 153.05,54.08 153.44,54.08 153.84,54.08 154.24,54.08 154.63,54.07 155.03,54.07 155.43,54.07 155.82,54.07 156.22,54.07 156.62,54.07 157.01,54.07 157.41,54.07 157.81,54.07 158.2,54.07 158.6,54.07 158.99,54.06 159.39,54.06 159.79,54.06 160.18,54.07 160.58,54.07 160.98,54.06 161.37,54.06 161.77,54.06 162.17,54.06 162.56,54.06 162.96,54.06 163.36,54.06 163.75,54.05 164.15,54.05 164.55,54.05 164.94,54.05 165.34,54.05 165.74,54.05 166.13,54.05 166.53,54.05 166.92,54.05 167.32,54.05 167.72,54.05 168.11,54.05 168.51,54.05 168.91,54.05 169.3,54.05 169.7,54.04 170.1,54.05 170.49,54.05 170.89,54.05 171.29,54.05 171.68,54.05 172.08,54.05 172.48,54.04 172.87,54.04 173.27,54.04 173.67,54.04 174.06,54.04 174.46,54.04 174.85,54.04 175.25,54.04 175.65,54.04 176.04,54.04 176.44,54.04 176.84,54.04 177.23,54.04 177.63,54.04 178.03,54.04 178.42,54.03 178.82,54.03 179.22,54.03 179.61,54.03 180.01,54.04 180.41,54.04 180.8,54.04 181.2,54.04 181.6,54.03 181.99,54.03 182.39,54.03 182.78,54.03 183.18,54.03 183.58,54.03 183.97,54.03 184.37,54.03 184.77,54.03 185.16,54.03 185.56,54.03 185.96,54.03 186.35,54.03 186.75,54.03 187.15,54.03 187.54,54.03 187.94,54.03 188.34,54.03 188.73,54.03 189.13,54.03 189.52,54.03 189.92,54.02 190.32,54.02 190.71,54.03 191.11,54.03 191.51,54.02 191.9,54.02 192.3,54.02 192.7,54.02 193.09,54.02 193.49,54.02 193.89,54.02 194.28,54.02 194.68,54.02 195.08,54.02 195.47,54.02 195.87,54.02 196.27,54.02 196.66,54.02 197.06,54.02 197.45,54.02 197.85,54.02 198.25,54.02 198.64,54.02 199.04,54.02 199.44,54.02 199.83,54.02 200.23,54.02 200.63,54.02 201.02,54.01 201.42,54.01 201.82,54.01 202.21,54.02 202.61,54.02 203.01,54.01 203.4,54.01 203.8,54.01 204.2,54.02 204.59,54.02 204.99,54.01 205.38,54.01 205.78,54.01 206.18,54.01 206.57,54.01 206.97,54.01 207.37,54.01 207.76,54.01 208.16,54.01 208.56,54.01 208.95,54.01 209.35,54.01 209.75,54.01 210.14,54.01 210.54,54.01 210.94,54.01 211.33,54.01 211.73,54.01 212.13,54.01 212.52,54.01 212.92,54.01 213.31,54.01 213.71,54.01 214.11,54.01 214.5,54.01 214.9,54.01 215.3,54.01 215.69,54.01 216.09,54.01 216.49,54.01 216.88,54.01 217.28,54.01 217.68,54.01 218.07,54.01 218.47,54.01 218.87,54.01 219.26,54.01 219.66,54.01 220.06,54.01 220.45,54.01 220.85,54.01 221.24,54.01 221.64,54.01 222.04,54.01 222.43,54 222.83,54 223.23,54 223.62,54 224.02,54 224.42,54.01 224.81,54 225.21,54 225.61,54 226,54 226.4,54 226.8,54 227.19,54 227.59,54 227.98,54 228.38,54 228.78,54 229.17,54 229.57,54 229.97,54 230.36,54 230.76,54 231.16,54 231.55,54 231.95,54 232.35,54 232.74,54 233.14,54 233.54,54 233.93,54 234.33,54 234.73,54 235.12,54 235.52,54 235.91,54 236.31,54 236.71,54 237.1,54 237.5,54 237.9,54 238.29,54 238.69,54 239.09,54 239.48,54 239.88,54 240.28,54 240.67,54 241.07,54 241.47,54 241.86,54 242.26,54 242.66,54 243.05,54 243.45,54 243.84,54 244.24,54 244.64,54 245.03,54 245.43,54 245.83,54 246.22,54 246.62,54 247.02,54 247.41,54 247.81,54 248.21,53.99 248.6,53.99 249,53.99 249.4,53.99 249.79,53.99 250.19,53.99 250.59,53.99 250.98,54 251.38,53.99 251.77,54 252.17,54 252.57,54 252.96,54 253.36,53.99 253.76,53.99 254.15,53.99 254.55,54 254.95,53.99 255.34,53.99 255.74,53.99 256.14,53.99 256.53,53.99 256.93,53.99 257.33,53.99 257.72,53.99 258.12,53.99 258.52,53.99 258.91,53.99 259.31,53.99 259.7,53.99 260.1,53.99 260.5,53.99 260.89,53.98 261.29,53.97 261.69,53.97" stroke-dasharray="none" stroke="rgb(31,120,180)" stroke-width="0.75" opacity="1" stroke-opacity="1" fill="none"/>
          </g>
          <g id="Fig:densplot_01.xyplot.lines.group.7.panel.1.1.1">
            <polyline id="Fig:densplot_01.xyplot.lines.group.7.panel.1.1.1.1" points="59.37,53.97 59.76,53.97 60.16,54 60.56,54.22 60.95,55.07 61.35,57.34 61.74,61.6 62.14,67.38 62.54,73.32 62.93,78.18 63.33,81.54 63.72,83.54 64.12,84.27 64.52,83.85 64.91,82.75 65.31,81.3 65.7,79.63 66.1,77.82 66.5,75.85 66.89,73.8 67.29,71.94 67.69,70.33 68.08,68.89 68.48,67.52 68.87,66.16 69.27,64.94 69.67,63.92 70.06,63.07 70.46,62.33 70.85,61.65 71.25,60.98 71.65,60.4 72.04,59.94 72.44,59.59 72.83,59.27 73.23,58.93 73.63,58.65 74.02,58.42 74.42,58.22 74.81,58.03 75.21,57.84 75.61,57.65 76,57.48 76.4,57.33 76.8,57.21 77.19,57.12 77.59,57.01 77.98,56.89 78.38,56.79 78.78,56.71 79.17,56.65 79.57,56.58 79.96,56.49 80.36,56.39 80.76,56.31 81.15,56.25 81.55,56.2 81.94,56.13 82.34,56.06 82.74,55.99 83.13,55.93 83.53,55.88 83.92,55.81 84.32,55.75 84.72,55.7 85.11,55.66 85.51,55.63 85.91,55.59 86.3,55.54 86.7,55.48 87.09,55.44 87.49,55.41 87.89,55.38 88.28,55.35 88.68,55.31 89.07,55.28 89.47,55.25 89.87,55.22 90.26,55.2 90.66,55.17 91.05,55.14 91.45,55.11 91.85,55.09 92.24,55.07 92.64,55.04 93.03,55.01 93.43,54.98 93.83,54.95 94.22,54.93 94.62,54.92 95.01,54.9 95.41,54.87 95.81,54.86 96.2,54.84 96.6,54.83 97,54.81 97.39,54.78 97.79,54.76 98.18,54.74 98.58,54.74 98.98,54.72 99.37,54.7 99.77,54.68 100.16,54.66 100.56,54.65 100.96,54.65 101.35,54.65 101.75,54.63 102.14,54.61 102.54,54.61 102.94,54.6 103.33,54.59 103.73,54.57 104.12,54.56 104.52,54.55 104.92,54.54 105.31,54.53 105.71,54.52 106.11,54.51 106.5,54.5 106.9,54.49 107.29,54.48 107.69,54.48 108.09,54.47 108.48,54.45 108.88,54.44 109.27,54.44 109.67,54.43 110.07,54.43 110.46,54.42 110.86,54.4 111.25,54.39 111.65,54.39 112.05,54.39 112.44,54.38 112.84,54.38 113.23,54.37 113.63,54.36 114.03,54.35 114.42,54.35 114.82,54.34 115.22,54.33 115.61,54.33 116.01,54.33 116.4,54.32 116.8,54.31 117.2,54.3 117.59,54.3 117.99,54.3 118.38,54.3 118.78,54.3 119.18,54.29 119.57,54.28 119.97,54.28 120.36,54.28 120.76,54.27 121.16,54.27 121.55,54.26 121.95,54.25 122.34,54.25 122.74,54.25 123.14,54.25 123.53,54.25 123.93,54.25 124.33,54.25 124.72,54.24 125.12,54.24 125.51,54.23 125.91,54.23 126.31,54.23 126.7,54.22 127.1,54.22 127.49,54.22 127.89,54.21 128.29,54.2 128.68,54.2 129.08,54.2 129.47,54.2 129.87,54.19 130.27,54.19 130.66,54.18 131.06,54.18 131.45,54.19 131.85,54.19 132.25,54.19 132.64,54.19 133.04,54.18 133.44,54.18 133.83,54.18 134.23,54.17 134.62,54.17 135.02,54.16 135.42,54.16 135.81,54.16 136.21,54.16 136.6,54.16 137,54.16 137.4,54.16 137.79,54.16 138.19,54.16 138.58,54.16 138.98,54.15 139.38,54.15 139.77,54.14 140.17,54.14 140.56,54.14 140.96,54.14 141.36,54.14 141.75,54.13 142.15,54.13 142.54,54.13 142.94,54.14 143.34,54.13 143.73,54.13 144.13,54.13 144.53,54.13 144.92,54.12 145.32,54.12 145.71,54.12 146.11,54.12 146.51,54.12 146.9,54.12 147.3,54.12 147.69,54.12 148.09,54.11 148.49,54.11 148.88,54.11 149.28,54.11 149.67,54.11 150.07,54.11 150.47,54.11 150.86,54.1 151.26,54.1 151.65,54.1 152.05,54.1 152.45,54.1 152.84,54.1 153.24,54.09 153.64,54.1 154.03,54.1 154.43,54.1 154.82,54.1 155.22,54.09 155.62,54.09 156.01,54.09 156.41,54.09 156.8,54.09 157.2,54.09 157.6,54.09 157.99,54.08 158.39,54.08 158.78,54.08 159.18,54.08 159.58,54.08 159.97,54.08 160.37,54.08 160.76,54.08 161.16,54.08 161.56,54.08 161.95,54.08 162.35,54.08 162.75,54.08 163.14,54.08 163.54,54.08 163.93,54.08 164.33,54.07 164.73,54.07 165.12,54.07 165.52,54.07 165.91,54.07 166.31,54.07 166.71,54.07 167.1,54.07 167.5,54.07 167.89,54.07 168.29,54.07 168.69,54.07 169.08,54.07 169.48,54.06 169.87,54.06 170.27,54.06 170.67,54.06 171.06,54.06 171.46,54.06 171.86,54.06 172.25,54.06 172.65,54.06 173.04,54.06 173.44,54.06 173.84,54.06 174.23,54.06 174.63,54.06 175.02,54.06 175.42,54.06 175.82,54.05 176.21,54.05 176.61,54.05 177,54.05 177.4,54.05 177.8,54.05 178.19,54.05 178.59,54.05 178.98,54.05 179.38,54.05 179.78,54.05 180.17,54.05 180.57,54.05 180.96,54.05 181.36,54.05 181.76,54.04 182.15,54.05 182.55,54.05 182.95,54.05 183.34,54.05 183.74,54.04 184.13,54.04 184.53,54.04 184.93,54.04 185.32,54.04 185.72,54.04 186.11,54.04 186.51,54.04 186.91,54.04 187.3,54.04 187.7,54.04 188.09,54.04 188.49,54.04 188.89,54.04 189.28,54.04 189.68,54.04 190.07,54.03 190.47,54.04 190.87,54.04 191.26,54.04 191.66,54.04 192.06,54.03 192.45,54.03 192.85,54.03 193.24,54.03 193.64,54.04 194.04,54.04 194.43,54.03 194.83,54.03 195.22,54.03 195.62,54.03 196.02,54.03 196.41,54.03 196.81,54.03 197.2,54.03 197.6,54.03 198,54.03 198.39,54.03 198.79,54.03 199.18,54.03 199.58,54.03 199.98,54.04 200.37,54.03 200.77,54.03 201.17,54.03 201.56,54.03 201.96,54.03 202.35,54.03 202.75,54.03 203.15,54.03 203.54,54.03 203.94,54.03 204.33,54.03 204.73,54.03 205.13,54.03 205.52,54.02 205.92,54.02 206.31,54.02 206.71,54.03 207.11,54.03 207.5,54.02 207.9,54.02 208.29,54.02 208.69,54.02 209.09,54.02 209.48,54.02 209.88,54.02 210.28,54.02 210.67,54.02 211.07,54.02 211.46,54.02 211.86,54.02 212.26,54.02 212.65,54.02 213.05,54.02 213.44,54.02 213.84,54.02 214.24,54.02 214.63,54.02 215.03,54.02 215.42,54.02 215.82,54.02 216.22,54.02 216.61,54.02 217.01,54.02 217.4,54.02 217.8,54.02 218.2,54.02 218.59,54.02 218.99,54.02 219.38,54.02 219.78,54.02 220.18,54.01 220.57,54.01 220.97,54.01 221.37,54.01 221.76,54.01 222.16,54.01 222.55,54.01 222.95,54.01 223.35,54.01 223.74,54.02 224.14,54.02 224.53,54.02 224.93,54.01 225.33,54.01 225.72,54.02 226.12,54.02 226.51,54.02 226.91,54.01 227.31,54.01 227.7,54.01 228.1,54.01 228.49,54.01 228.89,54.01 229.29,54.01 229.68,54.01 230.08,54.01 230.48,54.01 230.87,54.01 231.27,54.01 231.66,54.01 232.06,54.01 232.46,54.01 232.85,54.01 233.25,54.01 233.64,54.01 234.04,54.01 234.44,54.01 234.83,54.01 235.23,54.01 235.62,54.01 236.02,54.01 236.42,54 236.81,54 237.21,54 237.6,54 238,54 238.4,54 238.79,54.01 239.19,54.01 239.59,54.01 239.98,54.01 240.38,54.01 240.77,54.01 241.17,54.01 241.57,54 241.96,54 242.36,54 242.75,54.01 243.15,54.01 243.55,54.01 243.94,54.01 244.34,54.01 244.73,54.01 245.13,54 245.53,54 245.92,54 246.32,54 246.71,54 247.11,54 247.51,54 247.9,54 248.3,54 248.7,54 249.09,54 249.49,54.01 249.88,54.01 250.28,54.01 250.68,54.01 251.07,54 251.47,54 251.86,54 252.26,54 252.66,54 253.05,54 253.45,54 253.84,54 254.24,54 254.64,54.01 255.03,54 255.43,54 255.82,54 256.22,54 256.62,54 257.01,54 257.41,54 257.8,54 258.2,54 258.6,54 258.99,54 259.39,54 259.79,54 260.18,54 260.58,53.99 260.97,53.98 261.37,53.97 261.77,53.97" stroke-dasharray="none" stroke="rgb(31,120,180)" stroke-width="0.75" opacity="1" stroke-opacity="1" fill="none"/>
          </g>
          <g id="Fig:densplot_01.xyplot.lines.group.8.panel.1.1.1">
            <polyline id="Fig:densplot_01.xyplot.lines.group.8.panel.1.1.1.1" points="59.15,53.97 59.54,53.97 59.94,54 60.34,54.23 60.73,55.2 61.13,57.81 61.53,62.76 61.92,69.67 62.32,76.97 62.71,82.66 63.11,85.93 63.51,87.21 63.9,87.14 64.3,86.12 64.7,84.33 65.09,81.92 65.49,79.28 65.89,76.69 66.28,74.28 66.68,72.07 67.08,70 67.47,68.11 67.87,66.54 68.27,65.28 68.66,64.21 69.06,63.23 69.46,62.31 69.85,61.52 70.25,60.9 70.65,60.41 71.04,60 71.44,59.61 71.84,59.23 72.23,58.91 72.63,58.65 73.03,58.45 73.42,58.26 73.82,58.04 74.22,57.86 74.61,57.74 75.01,57.63 75.41,57.5 75.8,57.34 76.2,57.2 76.6,57.1 76.99,57.01 77.39,56.93 77.79,56.85 78.18,56.76 78.58,56.66 78.98,56.58 79.37,56.51 79.77,56.44 80.16,56.35 80.56,56.27 80.96,56.22 81.35,56.17 81.75,56.13 82.15,56.07 82.54,55.99 82.94,55.91 83.34,55.86 83.73,55.83 84.13,55.79 84.53,55.74 84.92,55.69 85.32,55.65 85.72,55.62 86.11,55.57 86.51,55.51 86.91,55.46 87.3,55.41 87.7,55.39 88.1,55.37 88.49,55.35 88.89,55.32 89.29,55.28 89.68,55.25 90.08,55.22 90.48,55.19 90.87,55.15 91.27,55.11 91.67,55.08 92.06,55.06 92.46,55.04 92.86,55.01 93.25,54.98 93.65,54.96 94.05,54.94 94.44,54.93 94.84,54.91 95.24,54.89 95.63,54.86 96.03,54.83 96.43,54.82 96.82,54.81 97.22,54.8 97.61,54.77 98.01,54.75 98.41,54.75 98.8,54.74 99.2,54.73 99.6,54.71 99.99,54.7 100.39,54.69 100.79,54.67 101.18,54.66 101.58,54.65 101.98,54.64 102.37,54.62 102.77,54.61 103.17,54.6 103.56,54.6 103.96,54.58 104.36,54.57 104.75,54.56 105.15,54.55 105.55,54.54 105.94,54.52 106.34,54.51 106.74,54.51 107.13,54.5 107.53,54.49 107.93,54.49 108.32,54.48 108.72,54.46 109.12,54.45 109.51,54.44 109.91,54.43 110.31,54.42 110.7,54.42 111.1,54.41 111.5,54.4 111.89,54.4 112.29,54.4 112.69,54.39 113.08,54.38 113.48,54.38 113.88,54.37 114.27,54.37 114.67,54.36 115.06,54.35 115.46,54.35 115.86,54.34 116.25,54.34 116.65,54.33 117.05,54.32 117.44,54.31 117.84,54.31 118.24,54.31 118.63,54.31 119.03,54.3 119.43,54.29 119.82,54.29 120.22,54.29 120.62,54.28 121.01,54.28 121.41,54.27 121.81,54.27 122.2,54.27 122.6,54.27 123,54.26 123.39,54.25 123.79,54.25 124.19,54.24 124.58,54.24 124.98,54.24 125.38,54.24 125.77,54.23 126.17,54.22 126.57,54.22 126.96,54.22 127.36,54.22 127.76,54.22 128.15,54.21 128.55,54.21 128.95,54.21 129.34,54.21 129.74,54.21 130.14,54.2 130.53,54.2 130.93,54.19 131.33,54.19 131.72,54.19 132.12,54.19 132.51,54.18 132.91,54.18 133.31,54.18 133.7,54.18 134.1,54.18 134.5,54.17 134.89,54.17 135.29,54.17 135.69,54.17 136.08,54.16 136.48,54.16 136.88,54.16 137.27,54.16 137.67,54.16 138.07,54.16 138.46,54.15 138.86,54.15 139.26,54.15 139.65,54.15 140.05,54.14 140.45,54.14 140.84,54.14 141.24,54.14 141.64,54.14 142.03,54.14 142.43,54.13 142.83,54.13 143.22,54.13 143.62,54.13 144.02,54.13 144.41,54.13 144.81,54.13 145.21,54.12 145.6,54.12 146,54.12 146.4,54.12 146.79,54.12 147.19,54.11 147.59,54.11 147.98,54.11 148.38,54.11 148.78,54.11 149.17,54.11 149.57,54.11 149.97,54.11 150.36,54.11 150.76,54.11 151.15,54.11 151.55,54.11 151.95,54.1 152.34,54.1 152.74,54.1 153.14,54.1 153.53,54.1 153.93,54.1 154.33,54.1 154.72,54.1 155.12,54.09 155.52,54.09 155.91,54.09 156.31,54.09 156.71,54.09 157.1,54.09 157.5,54.09 157.9,54.09 158.29,54.09 158.69,54.09 159.09,54.09 159.48,54.08 159.88,54.08 160.28,54.08 160.67,54.08 161.07,54.08 161.47,54.09 161.86,54.08 162.26,54.08 162.66,54.08 163.05,54.08 163.45,54.08 163.85,54.08 164.24,54.08 164.64,54.07 165.04,54.07 165.43,54.07 165.83,54.07 166.23,54.07 166.62,54.07 167.02,54.07 167.42,54.07 167.81,54.07 168.21,54.07 168.6,54.07 169,54.06 169.4,54.06 169.79,54.06 170.19,54.06 170.59,54.06 170.98,54.06 171.38,54.06 171.78,54.06 172.17,54.06 172.57,54.06 172.97,54.06 173.36,54.06 173.76,54.06 174.16,54.06 174.55,54.06 174.95,54.06 175.35,54.06 175.74,54.05 176.14,54.05 176.54,54.06 176.93,54.05 177.33,54.05 177.73,54.05 178.12,54.05 178.52,54.05 178.92,54.05 179.31,54.05 179.71,54.05 180.11,54.05 180.5,54.05 180.9,54.05 181.3,54.05 181.69,54.05 182.09,54.05 182.49,54.05 182.88,54.05 183.28,54.05 183.68,54.05 184.07,54.05 184.47,54.04 184.87,54.04 185.26,54.04 185.66,54.04 186.05,54.04 186.45,54.04 186.85,54.04 187.24,54.04 187.64,54.04 188.04,54.04 188.43,54.04 188.83,54.04 189.23,54.04 189.62,54.04 190.02,54.04 190.42,54.04 190.81,54.04 191.21,54.04 191.61,54.04 192,54.03 192.4,54.03 192.8,54.03 193.19,54.03 193.59,54.04 193.99,54.04 194.38,54.03 194.78,54.03 195.18,54.03 195.57,54.03 195.97,54.03 196.37,54.03 196.76,54.03 197.16,54.03 197.56,54.03 197.95,54.03 198.35,54.03 198.75,54.03 199.14,54.03 199.54,54.03 199.94,54.03 200.33,54.03 200.73,54.03 201.13,54.03 201.52,54.03 201.92,54.03 202.32,54.03 202.71,54.03 203.11,54.03 203.5,54.03 203.9,54.02 204.3,54.02 204.69,54.02 205.09,54.02 205.49,54.02 205.88,54.02 206.28,54.02 206.68,54.02 207.07,54.02 207.47,54.02 207.87,54.02 208.26,54.02 208.66,54.02 209.06,54.02 209.45,54.02 209.85,54.02 210.25,54.02 210.64,54.02 211.04,54.02 211.44,54.02 211.83,54.02 212.23,54.02 212.63,54.02 213.02,54.02 213.42,54.02 213.82,54.02 214.21,54.02 214.61,54.02 215.01,54.02 215.4,54.02 215.8,54.02 216.2,54.01 216.59,54.01 216.99,54.02 217.39,54.02 217.78,54.02 218.18,54.02 218.58,54.02 218.97,54.02 219.37,54.01 219.77,54.01 220.16,54.01 220.56,54.01 220.95,54.02 221.35,54.02 221.75,54.01 222.14,54.01 222.54,54.01 222.94,54.01 223.33,54.01 223.73,54.01 224.13,54.02 224.52,54.02 224.92,54.01 225.32,54.01 225.71,54.01 226.11,54.01 226.51,54.01 226.9,54.01 227.3,54.01 227.7,54.01 228.09,54.01 228.49,54.01 228.89,54.01 229.28,54.01 229.68,54.01 230.08,54.01 230.47,54.01 230.87,54.01 231.27,54.01 231.66,54.01 232.06,54.01 232.46,54 232.85,54 233.25,54.01 233.65,54.01 234.04,54.01 234.44,54 234.84,54.01 235.23,54.01 235.63,54.01 236.03,54.01 236.42,54.01 236.82,54 237.22,54 237.61,54 238.01,54 238.4,54.01 238.8,54.01 239.2,54.01 239.59,54.01 239.99,54.01 240.39,54.01 240.78,54.01 241.18,54 241.58,54 241.97,54 242.37,54 242.77,54 243.16,54 243.56,54 243.96,54 244.35,54 244.75,54 245.15,54 245.54,54 245.94,54 246.34,54 246.73,54 247.13,54 247.53,54.01 247.92,54.01 248.32,54.01 248.72,54 249.11,54 249.51,54 249.91,54.01 250.3,54 250.7,54 251.1,54 251.49,54 251.89,54 252.29,54 252.68,54 253.08,54 253.48,54 253.87,54 254.27,54 254.67,54 255.06,54 255.46,54 255.85,54 256.25,54 256.65,54 257.04,54 257.44,54 257.84,54 258.23,54 258.63,54 259.03,54 259.42,54 259.82,54 260.22,53.99 260.61,53.99 261.01,53.98 261.41,53.97 261.8,53.97" stroke-dasharray="none" stroke="rgb(31,120,180)" stroke-width="0.75" opacity="1" stroke-opacity="1" fill="none"/>
          </g>
          <g id="Fig:densplot_01.xyplot.lines.group.9.panel.1.1.1">
            <polyline id="Fig:densplot_01.xyplot.lines.group.9.panel.1.1.1.1" points="59.23,53.97 59.63,53.97 60.03,54.06 60.42,54.68 60.82,57.09 61.21,62.68 61.61,71.24 62.01,80.61 62.4,87.57 62.8,90.88 63.19,91.48 63.59,90.58 63.98,88.86 64.38,86.58 64.78,83.57 65.17,80.39 65.57,77.43 65.96,74.74 66.36,72.39 66.76,70.34 67.15,68.41 67.55,66.72 67.94,65.37 68.34,64.23 68.74,63.29 69.13,62.44 69.53,61.65 69.92,60.99 70.32,60.46 70.71,60.01 71.11,59.64 71.51,59.28 71.9,58.91 72.3,58.61 72.69,58.36 73.09,58.14 73.49,57.97 73.88,57.78 74.28,57.56 74.67,57.38 75.07,57.23 75.47,57.09 75.86,56.99 76.26,56.87 76.65,56.71 77.05,56.59 77.44,56.5 77.84,56.43 78.24,56.36 78.63,56.26 79.03,56.16 79.42,56.09 79.82,56.02 80.22,55.96 80.61,55.91 81.01,55.83 81.4,55.76 81.8,55.69 82.2,55.65 82.59,55.61 82.99,55.57 83.38,55.51 83.78,55.45 84.17,55.41 84.57,55.37 84.97,55.34 85.36,55.29 85.76,55.24 86.15,55.21 86.55,55.18 86.95,55.15 87.34,55.14 87.74,55.1 88.13,55.06 88.53,55.02 88.93,55 89.32,54.98 89.72,54.96 90.11,54.93 90.51,54.89 90.9,54.87 91.3,54.85 91.7,54.84 92.09,54.82 92.49,54.8 92.88,54.77 93.28,54.74 93.68,54.73 94.07,54.72 94.47,54.69 94.86,54.67 95.26,54.65 95.66,54.64 96.05,54.64 96.45,54.63 96.84,54.62 97.24,54.6 97.63,54.59 98.03,54.59 98.43,54.58 98.82,54.57 99.22,54.55 99.61,54.52 100.01,54.5 100.41,54.5 100.8,54.5 101.2,54.49 101.59,54.47 101.99,54.46 102.39,54.45 102.78,54.44 103.18,54.45 103.57,54.43 103.97,54.42 104.36,54.41 104.76,54.4 105.16,54.39 105.55,54.38 105.95,54.38 106.34,54.37 106.74,54.35 107.14,54.34 107.53,54.35 107.93,54.35 108.32,54.34 108.72,54.33 109.12,54.32 109.51,54.32 109.91,54.31 110.3,54.31 110.7,54.31 111.1,54.31 111.49,54.3 111.89,54.29 112.28,54.28 112.68,54.28 113.07,54.27 113.47,54.27 113.87,54.27 114.26,54.27 114.66,54.27 115.05,54.26 115.45,54.26 115.85,54.25 116.24,54.25 116.64,54.25 117.03,54.24 117.43,54.23 117.83,54.23 118.22,54.22 118.62,54.22 119.01,54.22 119.41,54.23 119.8,54.21 120.2,54.2 120.6,54.2 120.99,54.2 121.39,54.2 121.78,54.2 122.18,54.19 122.58,54.19 122.97,54.19 123.37,54.18 123.76,54.18 124.16,54.18 124.56,54.17 124.95,54.17 125.35,54.17 125.74,54.17 126.14,54.16 126.53,54.16 126.93,54.16 127.33,54.16 127.72,54.16 128.12,54.16 128.51,54.16 128.91,54.15 129.31,54.15 129.7,54.14 130.1,54.14 130.49,54.14 130.89,54.15 131.29,54.15 131.68,54.14 132.08,54.13 132.47,54.13 132.87,54.14 133.26,54.14 133.66,54.13 134.06,54.13 134.45,54.13 134.85,54.13 135.24,54.13 135.64,54.12 136.04,54.12 136.43,54.11 136.83,54.11 137.22,54.12 137.62,54.11 138.02,54.11 138.41,54.11 138.81,54.1 139.2,54.1 139.6,54.1 139.99,54.11 140.39,54.11 140.79,54.11 141.18,54.1 141.58,54.1 141.97,54.1 142.37,54.09 142.77,54.09 143.16,54.09 143.56,54.09 143.95,54.09 144.35,54.09 144.75,54.09 145.14,54.09 145.54,54.09 145.93,54.09 146.33,54.09 146.72,54.09 147.12,54.09 147.52,54.08 147.91,54.08 148.31,54.08 148.7,54.08 149.1,54.08 149.5,54.08 149.89,54.08 150.29,54.08 150.68,54.07 151.08,54.07 151.48,54.07 151.87,54.07 152.27,54.07 152.66,54.07 153.06,54.07 153.45,54.08 153.85,54.07 154.25,54.07 154.64,54.07 155.04,54.07 155.43,54.07 155.83,54.07 156.23,54.07 156.62,54.06 157.02,54.06 157.41,54.06 157.81,54.06 158.21,54.06 158.6,54.06 159,54.06 159.39,54.06 159.79,54.06 160.18,54.06 160.58,54.06 160.98,54.06 161.37,54.06 161.77,54.06 162.16,54.05 162.56,54.05 162.96,54.05 163.35,54.05 163.75,54.05 164.14,54.05 164.54,54.05 164.94,54.05 165.33,54.05 165.73,54.05 166.12,54.05 166.52,54.05 166.91,54.05 167.31,54.05 167.71,54.05 168.1,54.05 168.5,54.04 168.89,54.04 169.29,54.04 169.69,54.04 170.08,54.04 170.48,54.04 170.87,54.04 171.27,54.04 171.67,54.04 172.06,54.03 172.46,54.03 172.85,54.04 173.25,54.04 173.64,54.04 174.04,54.04 174.44,54.04 174.83,54.04 175.23,54.04 175.62,54.04 176.02,54.03 176.42,54.04 176.81,54.04 177.21,54.04 177.6,54.04 178,54.03 178.4,54.03 178.79,54.03 179.19,54.03 179.58,54.03 179.98,54.03 180.37,54.03 180.77,54.03 181.17,54.03 181.56,54.03 181.96,54.03 182.35,54.03 182.75,54.03 183.15,54.03 183.54,54.03 183.94,54.03 184.33,54.03 184.73,54.03 185.13,54.03 185.52,54.03 185.92,54.03 186.31,54.03 186.71,54.03 187.1,54.03 187.5,54.03 187.9,54.02 188.29,54.02 188.69,54.02 189.08,54.02 189.48,54.02 189.88,54.02 190.27,54.02 190.67,54.02 191.06,54.02 191.46,54.02 191.86,54.02 192.25,54.02 192.65,54.02 193.04,54.02 193.44,54.02 193.83,54.02 194.23,54.02 194.63,54.02 195.02,54.02 195.42,54.02 195.81,54.02 196.21,54.02 196.61,54.02 197,54.02 197.4,54.02 197.79,54.02 198.19,54.02 198.59,54.02 198.98,54.02 199.38,54.02 199.77,54.02 200.17,54.01 200.56,54.02 200.96,54.02 201.36,54.02 201.75,54.02 202.15,54.01 202.54,54.01 202.94,54.01 203.34,54.01 203.73,54.01 204.13,54.01 204.52,54.01 204.92,54.01 205.32,54.01 205.71,54.01 206.11,54.01 206.5,54.01 206.9,54.01 207.29,54.01 207.69,54.01 208.09,54.01 208.48,54.01 208.88,54.01 209.27,54.01 209.67,54.01 210.07,54.01 210.46,54.01 210.86,54.01 211.25,54.01 211.65,54 212.05,54 212.44,54.01 212.84,54.01 213.23,54.01 213.63,54.01 214.03,54.01 214.42,54.01 214.82,54.01 215.21,54.01 215.61,54.01 216,54.01 216.4,54.01 216.8,54 217.19,54.01 217.59,54.01 217.98,54.01 218.38,54.01 218.78,54.01 219.17,54 219.57,54.01 219.96,54.01 220.36,54 220.76,54 221.15,54 221.55,54 221.94,54 222.34,54 222.73,54.01 223.13,54.01 223.53,54.01 223.92,54.01 224.32,54 224.71,54 225.11,54 225.51,54 225.9,54 226.3,54 226.69,54 227.09,54 227.49,54 227.88,54 228.28,54 228.67,54 229.07,54 229.46,54 229.86,54 230.26,54.01 230.65,54.01 231.05,54 231.44,54 231.84,54 232.24,54 232.63,54 233.03,54 233.42,54 233.82,54 234.22,54 234.61,54 235.01,54 235.4,54 235.8,54 236.19,54 236.59,54 236.99,54 237.38,54 237.78,54 238.17,54 238.57,54 238.97,54 239.36,54 239.76,54 240.15,54 240.55,54 240.95,54 241.34,53.99 241.74,54 242.13,54 242.53,54 242.92,54 243.32,54 243.72,54 244.11,54 244.51,54 244.9,54 245.3,53.99 245.7,54 246.09,54 246.49,54 246.88,54 247.28,54 247.68,54 248.07,54 248.47,54 248.86,54 249.26,54 249.65,54 250.05,53.99 250.45,54 250.84,54 251.24,54 251.63,54 252.03,53.99 252.43,53.99 252.82,53.99 253.22,53.99 253.61,53.99 254.01,54 254.41,53.99 254.8,53.99 255.2,53.99 255.59,53.99 255.99,53.99 256.38,53.99 256.78,53.99 257.18,53.99 257.57,53.99 257.97,53.99 258.36,53.99 258.76,53.99 259.16,53.99 259.55,53.99 259.95,53.99 260.34,53.99 260.74,53.98 261.14,53.97 261.53,53.97" stroke-dasharray="none" stroke="rgb(31,120,180)" stroke-width="0.75" opacity="1" stroke-opacity="1" fill="none"/>
          </g>
          <g id="Fig:densplot_01.xyplot.lines.group.10.panel.1.1.1">
            <polyline id="Fig:densplot_01.xyplot.lines.group.10.panel.1.1.1.1" points="59.5,53.97 59.9,53.97 60.29,54 60.69,54.18 61.09,54.95 61.48,57.04 61.88,61.01 62.27,66.54 62.67,72.43 63.06,77.37 63.46,80.56 63.85,82.5 64.25,83.6 64.65,83.9 65.04,83.64 65.44,82.57 65.83,80.89 66.23,79.09 66.62,77.28 67.02,75.54 67.41,73.89 67.81,72.09 68.21,70.36 68.6,68.78 69,67.35 69.39,66.12 69.79,64.98 70.18,63.84 70.58,62.84 70.97,62.04 71.37,61.38 71.77,60.81 72.16,60.26 72.56,59.73 72.95,59.27 73.35,58.93 73.74,58.66 74.14,58.4 74.53,58.12 74.93,57.85 75.33,57.64 75.72,57.48 76.12,57.35 76.51,57.23 76.91,57.08 77.3,56.94 77.7,56.82 78.09,56.72 78.49,56.64 78.89,56.56 79.28,56.47 79.68,56.37 80.07,56.29 80.47,56.21 80.86,56.15 81.26,56.09 81.65,56.01 82.05,55.94 82.45,55.89 82.84,55.83 83.24,55.79 83.63,55.74 84.03,55.66 84.42,55.6 84.82,55.55 85.21,55.51 85.61,55.47 86.01,55.41 86.4,55.35 86.8,55.32 87.19,55.31 87.59,55.3 87.98,55.27 88.38,55.23 88.77,55.19 89.17,55.15 89.57,55.13 89.96,55.11 90.36,55.09 90.75,55.06 91.15,55.02 91.54,54.99 91.94,54.96 92.33,54.94 92.73,54.91 93.13,54.89 93.52,54.87 93.92,54.85 94.31,54.84 94.71,54.83 95.1,54.81 95.5,54.78 95.89,54.76 96.29,54.75 96.69,54.73 97.08,54.72 97.48,54.7 97.87,54.69 98.27,54.68 98.66,54.67 99.06,54.65 99.45,54.64 99.85,54.63 100.25,54.61 100.64,54.58 101.04,54.57 101.43,54.57 101.83,54.56 102.22,54.55 102.62,54.53 103.01,54.51 103.41,54.5 103.81,54.49 104.2,54.49 104.6,54.48 104.99,54.48 105.39,54.47 105.78,54.46 106.18,54.45 106.57,54.44 106.97,54.43 107.37,54.42 107.76,54.42 108.16,54.41 108.55,54.4 108.95,54.39 109.34,54.38 109.74,54.37 110.13,54.37 110.53,54.37 110.93,54.37 111.32,54.35 111.72,54.35 112.11,54.34 112.51,54.35 112.9,54.34 113.3,54.34 113.69,54.33 114.09,54.33 114.49,54.32 114.88,54.31 115.28,54.31 115.67,54.3 116.07,54.29 116.46,54.28 116.86,54.28 117.25,54.28 117.65,54.28 118.04,54.28 118.44,54.27 118.84,54.26 119.23,54.25 119.63,54.25 120.02,54.25 120.42,54.25 120.81,54.25 121.21,54.25 121.6,54.25 122,54.24 122.4,54.24 122.79,54.23 123.19,54.23 123.58,54.22 123.98,54.22 124.37,54.23 124.77,54.22 125.16,54.21 125.56,54.21 125.96,54.2 126.35,54.2 126.75,54.2 127.14,54.19 127.54,54.19 127.93,54.19 128.33,54.19 128.72,54.19 129.12,54.19 129.52,54.19 129.91,54.18 130.31,54.18 130.7,54.17 131.1,54.17 131.49,54.17 131.89,54.17 132.28,54.17 132.68,54.17 133.08,54.17 133.47,54.16 133.87,54.16 134.26,54.16 134.66,54.15 135.05,54.15 135.45,54.15 135.84,54.15 136.24,54.15 136.64,54.15 137.03,54.15 137.43,54.14 137.82,54.14 138.22,54.14 138.61,54.13 139.01,54.13 139.4,54.13 139.8,54.14 140.2,54.13 140.59,54.13 140.99,54.12 141.38,54.12 141.78,54.12 142.17,54.12 142.57,54.12 142.96,54.12 143.36,54.12 143.76,54.11 144.15,54.12 144.55,54.12 144.94,54.12 145.34,54.11 145.73,54.11 146.13,54.11 146.52,54.11 146.92,54.11 147.32,54.11 147.71,54.11 148.11,54.11 148.5,54.1 148.9,54.1 149.29,54.1 149.69,54.1 150.08,54.1 150.48,54.09 150.88,54.1 151.27,54.1 151.67,54.1 152.06,54.09 152.46,54.09 152.85,54.09 153.25,54.09 153.64,54.08 154.04,54.08 154.44,54.08 154.83,54.08 155.23,54.09 155.62,54.09 156.02,54.09 156.41,54.08 156.81,54.08 157.2,54.08 157.6,54.08 158,54.08 158.39,54.08 158.79,54.08 159.18,54.08 159.58,54.08 159.97,54.08 160.37,54.08 160.76,54.07 161.16,54.07 161.56,54.07 161.95,54.07 162.35,54.07 162.74,54.07 163.14,54.07 163.53,54.07 163.93,54.07 164.32,54.07 164.72,54.07 165.12,54.07 165.51,54.07 165.91,54.06 166.3,54.06 166.7,54.06 167.09,54.06 167.49,54.06 167.88,54.06 168.28,54.06 168.68,54.06 169.07,54.06 169.47,54.06 169.86,54.06 170.26,54.05 170.65,54.05 171.05,54.05 171.44,54.06 171.84,54.06 172.24,54.05 172.63,54.05 173.03,54.05 173.42,54.05 173.82,54.05 174.21,54.05 174.61,54.05 175,54.05 175.4,54.05 175.8,54.05 176.19,54.05 176.59,54.05 176.98,54.05 177.38,54.04 177.77,54.04 178.17,54.05 178.56,54.05 178.96,54.05 179.36,54.05 179.75,54.05 180.15,54.05 180.54,54.05 180.94,54.05 181.33,54.05 181.73,54.04 182.12,54.04 182.52,54.04 182.92,54.04 183.31,54.04 183.71,54.04 184.1,54.04 184.5,54.04 184.89,54.04 185.29,54.04 185.68,54.04 186.08,54.04 186.48,54.04 186.87,54.04 187.27,54.04 187.66,54.04 188.06,54.04 188.45,54.04 188.85,54.04 189.24,54.03 189.64,54.03 190.04,54.03 190.43,54.03 190.83,54.03 191.22,54.03 191.62,54.03 192.01,54.04 192.41,54.04 192.8,54.03 193.2,54.03 193.6,54.03 193.99,54.04 194.39,54.04 194.78,54.03 195.18,54.03 195.57,54.03 195.97,54.03 196.36,54.03 196.76,54.02 197.16,54.03 197.55,54.03 197.95,54.03 198.34,54.03 198.74,54.03 199.13,54.03 199.53,54.03 199.92,54.03 200.32,54.03 200.72,54.03 201.11,54.03 201.51,54.03 201.9,54.03 202.3,54.02 202.69,54.02 203.09,54.02 203.48,54.02 203.88,54.03 204.28,54.03 204.67,54.03 205.07,54.03 205.46,54.02 205.86,54.02 206.25,54.02 206.65,54.02 207.04,54.02 207.44,54.02 207.83,54.02 208.23,54.02 208.63,54.02 209.02,54.02 209.42,54.02 209.81,54.02 210.21,54.02 210.6,54.02 211,54.02 211.39,54.02 211.79,54.02 212.19,54.01 212.58,54.02 212.98,54.02 213.37,54.02 213.77,54.02 214.16,54.02 214.56,54.02 214.95,54.02 215.35,54.01 215.75,54.01 216.14,54.01 216.54,54.01 216.93,54.02 217.33,54.02 217.72,54.02 218.12,54.02 218.51,54.02 218.91,54.01 219.31,54.01 219.7,54.01 220.1,54.01 220.49,54.01 220.89,54.01 221.28,54.01 221.68,54.01 222.07,54.01 222.47,54.01 222.87,54.01 223.26,54.01 223.66,54.01 224.05,54.01 224.45,54.01 224.84,54.01 225.24,54.01 225.63,54.01 226.03,54.01 226.43,54.01 226.82,54.01 227.22,54.01 227.61,54.01 228.01,54.01 228.4,54.01 228.8,54.01 229.19,54.01 229.59,54.01 229.99,54.01 230.38,54.01 230.78,54.01 231.17,54.01 231.57,54.01 231.96,54.01 232.36,54 232.75,54.01 233.15,54.01 233.55,54.01 233.94,54 234.34,54.01 234.73,54.01 235.13,54.01 235.52,54.01 235.92,54.01 236.31,54.01 236.71,54.01 237.11,54.01 237.5,54.01 237.9,54.01 238.29,54.01 238.69,54.01 239.08,54.01 239.48,54.01 239.87,54.01 240.27,54.01 240.67,54.01 241.06,54.01 241.46,54.01 241.85,54 242.25,54 242.64,54 243.04,54 243.43,54 243.83,54 244.23,54 244.62,54 245.02,54 245.41,54.01 245.81,54 246.2,54 246.6,54 246.99,54 247.39,54 247.79,54 248.18,54 248.58,54 248.97,54 249.37,54 249.76,54 250.16,54 250.55,54 250.95,54 251.35,54 251.74,54 252.14,54 252.53,54 252.93,54 253.32,54 253.72,54 254.11,54 254.51,54 254.91,54 255.3,54 255.7,54 256.09,54 256.49,54 256.88,54 257.28,54 257.67,54 258.07,54 258.47,54 258.86,54 259.26,54 259.65,54 260.05,54 260.44,53.99 260.84,53.98 261.23,53.97 261.63,53.97" stroke-dasharray="none" stroke="rgb(31,120,180)" stroke-width="0.75" opacity="1" stroke-opacity="1" fill="none"/>
          </g>
          <g id="Fig:densplot_01.xyplot.lines.group.11.panel.1.1.1">
            <polyline id="Fig:densplot_01.xyplot.lines.group.11.panel.1.1.1.1" points="59.22,53.97 59.62,53.97 60.02,53.98 60.41,54.12 60.81,54.79 61.2,56.91 61.6,61.56 62,68.86 62.39,77.4 62.79,84.87 63.19,89.58 63.58,91.34 63.98,90.97 64.37,89.25 64.77,86.78 65.17,83.72 65.56,80.15 65.96,76.75 66.36,73.83 66.75,71.33 67.15,69.2 67.54,67.3 67.94,65.64 68.34,64.31 68.73,63.23 69.13,62.38 69.53,61.68 69.92,60.98 70.32,60.38 70.72,59.93 71.11,59.59 71.51,59.32 71.9,59.04 72.3,58.72 72.7,58.45 73.09,58.26 73.49,58.14 73.89,58 74.28,57.81 74.68,57.66 75.07,57.53 75.47,57.41 75.87,57.34 76.26,57.23 76.66,57.08 77.06,56.95 77.45,56.85 77.85,56.79 78.24,56.73 78.64,56.63 79.04,56.53 79.43,56.44 79.83,56.38 80.23,56.33 80.62,56.25 81.02,56.17 81.42,56.08 81.81,56.02 82.21,55.97 82.6,55.93 83,55.87 83.4,55.81 83.79,55.76 84.19,55.72 84.59,55.69 84.98,55.64 85.38,55.57 85.77,55.51 86.17,55.47 86.57,55.44 86.96,55.41 87.36,55.36 87.76,55.32 88.15,55.29 88.55,55.28 88.94,55.26 89.34,55.23 89.74,55.19 90.13,55.16 90.53,55.13 90.93,55.1 91.32,55.07 91.72,55.03 92.11,54.99 92.51,54.96 92.91,54.95 93.3,54.95 93.7,54.94 94.1,54.91 94.49,54.87 94.89,54.85 95.29,54.83 95.68,54.82 96.08,54.81 96.47,54.79 96.87,54.76 97.27,54.74 97.66,54.72 98.06,54.71 98.46,54.7 98.85,54.68 99.25,54.67 99.64,54.66 100.04,54.66 100.44,54.65 100.83,54.62 101.23,54.6 101.63,54.58 102.02,54.58 102.42,54.57 102.81,54.56 103.21,54.54 103.61,54.53 104,54.53 104.4,54.52 104.8,54.51 105.19,54.49 105.59,54.48 105.98,54.47 106.38,54.48 106.78,54.47 107.17,54.45 107.57,54.44 107.97,54.43 108.36,54.43 108.76,54.43 109.16,54.42 109.55,54.4 109.95,54.39 110.34,54.39 110.74,54.39 111.14,54.39 111.53,54.38 111.93,54.37 112.33,54.36 112.72,54.36 113.12,54.35 113.51,54.34 113.91,54.33 114.31,54.33 114.7,54.32 115.1,54.32 115.5,54.32 115.89,54.31 116.29,54.31 116.68,54.3 117.08,54.3 117.48,54.3 117.87,54.29 118.27,54.29 118.67,54.28 119.06,54.27 119.46,54.27 119.86,54.27 120.25,54.26 120.65,54.25 121.04,54.25 121.44,54.25 121.84,54.25 122.23,54.24 122.63,54.24 123.03,54.23 123.42,54.23 123.82,54.23 124.21,54.22 124.61,54.22 125.01,54.21 125.4,54.21 125.8,54.21 126.2,54.21 126.59,54.21 126.99,54.2 127.38,54.2 127.78,54.2 128.18,54.19 128.57,54.19 128.97,54.19 129.37,54.19 129.76,54.18 130.16,54.18 130.55,54.18 130.95,54.18 131.35,54.18 131.74,54.17 132.14,54.17 132.54,54.16 132.93,54.16 133.33,54.16 133.73,54.16 134.12,54.16 134.52,54.15 134.91,54.16 135.31,54.16 135.71,54.15 136.1,54.15 136.5,54.14 136.9,54.14 137.29,54.14 137.69,54.14 138.08,54.13 138.48,54.13 138.88,54.14 139.27,54.14 139.67,54.14 140.07,54.13 140.46,54.13 140.86,54.13 141.25,54.13 141.65,54.13 142.05,54.13 142.44,54.12 142.84,54.12 143.24,54.12 143.63,54.12 144.03,54.12 144.42,54.11 144.82,54.11 145.22,54.11 145.61,54.11 146.01,54.11 146.41,54.11 146.8,54.1 147.2,54.1 147.6,54.1 147.99,54.11 148.39,54.11 148.78,54.1 149.18,54.1 149.58,54.1 149.97,54.1 150.37,54.1 150.77,54.09 151.16,54.09 151.56,54.1 151.95,54.1 152.35,54.09 152.75,54.09 153.14,54.09 153.54,54.09 153.94,54.09 154.33,54.08 154.73,54.08 155.12,54.08 155.52,54.08 155.92,54.08 156.31,54.08 156.71,54.08 157.11,54.08 157.5,54.08 157.9,54.08 158.3,54.08 158.69,54.08 159.09,54.08 159.48,54.08 159.88,54.08 160.28,54.07 160.67,54.07 161.07,54.07 161.47,54.07 161.86,54.07 162.26,54.07 162.65,54.07 163.05,54.07 163.45,54.07 163.84,54.07 164.24,54.07 164.64,54.06 165.03,54.06 165.43,54.06 165.82,54.07 166.22,54.06 166.62,54.06 167.01,54.06 167.41,54.06 167.81,54.06 168.2,54.06 168.6,54.06 168.99,54.05 169.39,54.05 169.79,54.06 170.18,54.06 170.58,54.06 170.98,54.06 171.37,54.05 171.77,54.05 172.17,54.05 172.56,54.05 172.96,54.05 173.35,54.05 173.75,54.05 174.15,54.05 174.54,54.05 174.94,54.05 175.34,54.05 175.73,54.05 176.13,54.05 176.52,54.05 176.92,54.05 177.32,54.05 177.71,54.05 178.11,54.04 178.51,54.04 178.9,54.05 179.3,54.05 179.69,54.05 180.09,54.04 180.49,54.05 180.88,54.05 181.28,54.04 181.68,54.04 182.07,54.04 182.47,54.04 182.86,54.04 183.26,54.04 183.66,54.04 184.05,54.04 184.45,54.04 184.85,54.04 185.24,54.04 185.64,54.03 186.04,54.03 186.43,54.04 186.83,54.04 187.22,54.03 187.62,54.03 188.02,54.03 188.41,54.03 188.81,54.03 189.21,54.03 189.6,54.03 190,54.03 190.39,54.03 190.79,54.03 191.19,54.03 191.58,54.03 191.98,54.03 192.38,54.03 192.77,54.03 193.17,54.03 193.56,54.03 193.96,54.03 194.36,54.03 194.75,54.03 195.15,54.03 195.55,54.03 195.94,54.03 196.34,54.03 196.74,54.03 197.13,54.03 197.53,54.02 197.92,54.03 198.32,54.03 198.72,54.03 199.11,54.03 199.51,54.02 199.91,54.02 200.3,54.02 200.7,54.02 201.09,54.02 201.49,54.02 201.89,54.02 202.28,54.02 202.68,54.02 203.08,54.02 203.47,54.02 203.87,54.02 204.26,54.02 204.66,54.02 205.06,54.02 205.45,54.02 205.85,54.02 206.25,54.02 206.64,54.02 207.04,54.02 207.43,54.02 207.83,54.02 208.23,54.02 208.62,54.02 209.02,54.02 209.42,54.02 209.81,54.02 210.21,54.02 210.61,54.02 211,54.02 211.4,54.02 211.79,54.01 212.19,54.01 212.59,54.01 212.98,54.01 213.38,54.01 213.78,54.01 214.17,54.01 214.57,54.02 214.96,54.01 215.36,54.01 215.76,54.02 216.15,54.02 216.55,54.01 216.95,54.01 217.34,54.01 217.74,54.01 218.13,54.01 218.53,54.01 218.93,54.01 219.32,54.01 219.72,54.01 220.12,54.01 220.51,54.01 220.91,54.01 221.31,54.01 221.7,54.01 222.1,54.01 222.49,54.01 222.89,54.01 223.29,54.01 223.68,54.01 224.08,54.01 224.48,54.01 224.87,54.01 225.27,54.01 225.66,54.01 226.06,54.01 226.46,54.01 226.85,54.01 227.25,54.01 227.65,54.01 228.04,54.01 228.44,54.01 228.83,54.01 229.23,54.01 229.63,54.01 230.02,54.01 230.42,54.01 230.82,54.01 231.21,54.01 231.61,54.01 232,54.01 232.4,54.01 232.8,54 233.19,54 233.59,54 233.99,54 234.38,54.01 234.78,54.01 235.18,54.01 235.57,54.01 235.97,54 236.36,54 236.76,54.01 237.16,54.01 237.55,54.01 237.95,54.01 238.35,54.01 238.74,54 239.14,54 239.53,54 239.93,54 240.33,54 240.72,54 241.12,54 241.52,54 241.91,54 242.31,54 242.7,54 243.1,54 243.5,54 243.89,54 244.29,54 244.69,54 245.08,54 245.48,54 245.87,54 246.27,54 246.67,54 247.06,54 247.46,54 247.86,54 248.25,54 248.65,54 249.05,54 249.44,54 249.84,54 250.23,54 250.63,54 251.03,54 251.42,54 251.82,54 252.22,54 252.61,54 253.01,54 253.4,54 253.8,54 254.2,54 254.59,54 254.99,54 255.39,54 255.78,54 256.18,54 256.57,54 256.97,54 257.37,54 257.76,54 258.16,54 258.56,54 258.95,54 259.35,54 259.75,54 260.14,54 260.54,53.99 260.93,53.98 261.33,53.97 261.73,53.97" stroke-dasharray="none" stroke="rgb(31,120,180)" stroke-width="0.75" opacity="1" stroke-opacity="1" fill="none"/>
          </g>
          <g id="Fig:densplot_01.xyplot.lines.group.12.panel.1.1.1">
            <polyline id="Fig:densplot_01.xyplot.lines.group.12.panel.1.1.1.1" points="59,53.97 59.4,53.97 59.79,53.99 60.19,54.13 60.59,54.84 60.98,57.02 61.38,61.45 61.78,67.79 62.17,74.62 62.57,80.39 62.97,84.34 63.36,86.49 63.76,86.99 64.16,86.2 64.56,84.75 64.95,82.93 65.35,80.85 65.75,78.47 66.14,75.87 66.54,73.39 66.94,71.22 67.33,69.32 67.73,67.67 68.13,66.16 68.52,64.77 68.92,63.58 69.32,62.62 69.71,61.86 70.11,61.19 70.51,60.53 70.9,59.97 71.3,59.52 71.7,59.17 72.09,58.87 72.49,58.58 72.89,58.3 73.28,58.09 73.68,57.94 74.08,57.8 74.48,57.64 74.87,57.44 75.27,57.28 75.67,57.16 76.06,57.07 76.46,56.99 76.86,56.86 77.25,56.73 77.65,56.63 78.05,56.56 78.44,56.5 78.84,56.43 79.24,56.35 79.63,56.27 80.03,56.21 80.43,56.17 80.82,56.12 81.22,56.04 81.62,55.96 82.01,55.91 82.41,55.88 82.81,55.85 83.2,55.78 83.6,55.71 84,55.67 84.4,55.63 84.79,55.6 85.19,55.55 85.59,55.5 85.98,55.45 86.38,55.43 86.78,55.41 87.17,55.39 87.57,55.34 87.97,55.28 88.36,55.24 88.76,55.22 89.16,55.2 89.55,55.18 89.95,55.15 90.35,55.12 90.74,55.09 91.14,55.07 91.54,55.05 91.93,55.03 92.33,55.01 92.73,54.98 93.12,54.96 93.52,54.96 93.92,54.94 94.32,54.91 94.71,54.88 95.11,54.86 95.51,54.85 95.9,54.84 96.3,54.82 96.7,54.79 97.09,54.76 97.49,54.75 97.89,54.74 98.28,54.73 98.68,54.72 99.08,54.7 99.47,54.69 99.87,54.68 100.27,54.67 100.66,54.66 101.06,54.65 101.46,54.64 101.85,54.64 102.25,54.62 102.65,54.6 103.04,54.59 103.44,54.58 103.84,54.58 104.24,54.57 104.63,54.56 105.03,54.55 105.43,54.54 105.82,54.53 106.22,54.52 106.62,54.5 107.01,54.49 107.41,54.48 107.81,54.48 108.2,54.47 108.6,54.46 109,54.45 109.39,54.45 109.79,54.44 110.19,54.43 110.58,54.43 110.98,54.42 111.38,54.41 111.77,54.4 112.17,54.4 112.57,54.4 112.96,54.4 113.36,54.39 113.76,54.38 114.16,54.38 114.55,54.37 114.95,54.37 115.35,54.36 115.74,54.35 116.14,54.34 116.54,54.34 116.93,54.33 117.33,54.33 117.73,54.32 118.12,54.32 118.52,54.31 118.92,54.31 119.31,54.31 119.71,54.3 120.11,54.3 120.5,54.3 120.9,54.29 121.3,54.28 121.69,54.28 122.09,54.27 122.49,54.27 122.89,54.27 123.28,54.27 123.68,54.26 124.08,54.25 124.47,54.25 124.87,54.25 125.27,54.24 125.66,54.24 126.06,54.25 126.46,54.25 126.85,54.24 127.25,54.24 127.65,54.24 128.04,54.23 128.44,54.23 128.84,54.23 129.23,54.23 129.63,54.22 130.03,54.22 130.42,54.21 130.82,54.21 131.22,54.2 131.61,54.21 132.01,54.2 132.41,54.2 132.81,54.2 133.2,54.2 133.6,54.2 134,54.19 134.39,54.19 134.79,54.18 135.19,54.18 135.58,54.18 135.98,54.18 136.38,54.18 136.77,54.18 137.17,54.18 137.57,54.18 137.96,54.17 138.36,54.17 138.76,54.17 139.15,54.17 139.55,54.16 139.95,54.16 140.34,54.16 140.74,54.16 141.14,54.16 141.53,54.16 141.93,54.15 142.33,54.15 142.73,54.15 143.12,54.15 143.52,54.15 143.92,54.15 144.31,54.14 144.71,54.14 145.11,54.14 145.5,54.14 145.9,54.14 146.3,54.14 146.69,54.13 147.09,54.13 147.49,54.13 147.88,54.13 148.28,54.13 148.68,54.13 149.07,54.13 149.47,54.13 149.87,54.13 150.26,54.13 150.66,54.13 151.06,54.13 151.45,54.12 151.85,54.12 152.25,54.11 152.65,54.11 153.04,54.11 153.44,54.11 153.84,54.11 154.23,54.11 154.63,54.1 155.03,54.1 155.42,54.1 155.82,54.11 156.22,54.11 156.61,54.1 157.01,54.1 157.41,54.1 157.8,54.1 158.2,54.1 158.6,54.1 158.99,54.1 159.39,54.1 159.79,54.1 160.18,54.1 160.58,54.09 160.98,54.09 161.37,54.09 161.77,54.08 162.17,54.08 162.57,54.08 162.96,54.08 163.36,54.08 163.76,54.08 164.15,54.08 164.55,54.08 164.95,54.08 165.34,54.08 165.74,54.08 166.14,54.08 166.53,54.08 166.93,54.08 167.33,54.08 167.72,54.08 168.12,54.08 168.52,54.07 168.91,54.07 169.31,54.07 169.71,54.07 170.1,54.07 170.5,54.07 170.9,54.07 171.29,54.07 171.69,54.06 172.09,54.06 172.49,54.07 172.88,54.07 173.28,54.07 173.68,54.07 174.07,54.07 174.47,54.07 174.87,54.07 175.26,54.07 175.66,54.07 176.06,54.07 176.45,54.06 176.85,54.06 177.25,54.06 177.64,54.06 178.04,54.06 178.44,54.06 178.83,54.06 179.23,54.06 179.63,54.06 180.02,54.06 180.42,54.06 180.82,54.06 181.21,54.06 181.61,54.06 182.01,54.05 182.41,54.05 182.8,54.05 183.2,54.05 183.6,54.05 183.99,54.05 184.39,54.05 184.79,54.05 185.18,54.05 185.58,54.05 185.98,54.05 186.37,54.05 186.77,54.05 187.17,54.04 187.56,54.05 187.96,54.05 188.36,54.05 188.75,54.05 189.15,54.05 189.55,54.05 189.94,54.05 190.34,54.05 190.74,54.04 191.13,54.04 191.53,54.04 191.93,54.04 192.33,54.04 192.72,54.04 193.12,54.04 193.52,54.04 193.91,54.04 194.31,54.04 194.71,54.04 195.1,54.04 195.5,54.04 195.9,54.04 196.29,54.04 196.69,54.04 197.09,54.04 197.48,54.04 197.88,54.04 198.28,54.04 198.67,54.04 199.07,54.03 199.47,54.03 199.86,54.03 200.26,54.03 200.66,54.03 201.05,54.03 201.45,54.03 201.85,54.03 202.25,54.03 202.64,54.03 203.04,54.03 203.44,54.03 203.83,54.03 204.23,54.03 204.63,54.03 205.02,54.03 205.42,54.03 205.82,54.03 206.21,54.03 206.61,54.03 207.01,54.03 207.4,54.03 207.8,54.03 208.2,54.03 208.59,54.03 208.99,54.03 209.39,54.03 209.78,54.03 210.18,54.03 210.58,54.02 210.97,54.02 211.37,54.02 211.77,54.03 212.17,54.03 212.56,54.03 212.96,54.03 213.36,54.03 213.75,54.03 214.15,54.03 214.55,54.02 214.94,54.02 215.34,54.02 215.74,54.02 216.13,54.02 216.53,54.02 216.93,54.02 217.32,54.02 217.72,54.02 218.12,54.02 218.51,54.02 218.91,54.02 219.31,54.02 219.7,54.02 220.1,54.02 220.5,54.02 220.89,54.02 221.29,54.02 221.69,54.02 222.09,54.02 222.48,54.02 222.88,54.02 223.28,54.02 223.67,54.02 224.07,54.02 224.47,54.02 224.86,54.02 225.26,54.02 225.66,54.02 226.05,54.02 226.45,54.02 226.85,54.01 227.24,54.01 227.64,54.01 228.04,54.01 228.43,54.01 228.83,54.01 229.23,54.02 229.62,54.02 230.02,54.01 230.42,54.02 230.81,54.02 231.21,54.02 231.61,54.01 232.01,54.01 232.4,54.01 232.8,54.01 233.2,54.01 233.59,54.01 233.99,54.01 234.39,54.01 234.78,54.01 235.18,54.01 235.58,54.01 235.97,54.01 236.37,54.01 236.77,54.01 237.16,54.01 237.56,54.01 237.96,54.01 238.35,54.01 238.75,54.01 239.15,54.01 239.54,54.01 239.94,54.01 240.34,54.01 240.73,54.01 241.13,54.01 241.53,54.01 241.93,54.01 242.32,54.01 242.72,54.01 243.12,54.01 243.51,54.01 243.91,54.01 244.31,54.01 244.7,54.01 245.1,54.01 245.5,54.01 245.89,54.01 246.29,54.01 246.69,54.01 247.08,54.01 247.48,54.01 247.88,54.01 248.27,54.01 248.67,54.01 249.07,54.01 249.46,54.01 249.86,54.01 250.26,54.01 250.65,54.01 251.05,54.01 251.45,54 251.85,54 252.24,54 252.64,54 253.04,54.01 253.43,54 253.83,54 254.23,54 254.62,54 255.02,54 255.42,54 255.81,54 256.21,54 256.61,54 257,54 257.4,54 257.8,54 258.19,54 258.59,54 258.99,54 259.38,54 259.78,54 260.18,54 260.57,53.99 260.97,53.98 261.37,53.97 261.77,53.97" stroke-dasharray="none" stroke="rgb(31,120,180)" stroke-width="0.75" opacity="1" stroke-opacity="1" fill="none"/>
          </g>
        </g>
        <g id="Fig:densplot_01.panel.1.1.off.vp.2">
          <g id="Fig:densplot_01.border.panel.1.1.1">
            <rect id="Fig:densplot_01.border.panel.1.1.1.1" x="44.8" y="42.19" width="231.2" height="191.81" transform="" stroke="rgb(0,0,0)" stroke-dasharray="none" stroke-width="0.75" opacity="1" fill="none" stroke-opacity="1" fill-opacity="0"/>
          </g>
        </g>
        <g id="Fig:densplot_01..1"/>
      </g>
    </g>
  </g>
</svg>